<?xml version="1.0" encoding="UTF-8"?>
<svg width="93px" height="101px" viewBox="0 0 93 101" version="1.1" xmlns="http://www.w3.org/2000/svg" xmlns:xlink="http://www.w3.org/1999/xlink">
    <!-- Generator: Sketch 63.1 (92452) - https://sketch.com -->
    <title>top_r/img_ authority01</title>
    <desc>Created with Sketch.</desc>
    <defs>
        <polygon id="path-1" points="0.4061 0.124 42.8371 0.124 42.8371 87.6807058 0.4061 87.6807058"></polygon>
        <polygon id="path-3" points="0 0.124 42.434 0.124 42.434 87.6807058 0 87.6807058"></polygon>
        <polygon id="path-5" points="0 100.876 92.838 100.876 92.838 1 0 1"></polygon>
    </defs>
    <g id="top_r/img_-authority01" stroke="none" stroke-width="1" fill="none" fill-rule="evenodd">
        <g id="Group-48">
            <g id="Group-3" transform="translate(50.000000, 0.876000)">
                <mask id="mask-2" fill="white">
                    <use xlink:href="#path-1"></use>
                </mask>
                <g id="Clip-2"></g>
                <path d="M40.0181,53.1006 C42.1511,51.9356 42.8181,49.0336 42.8181,49.0336 C42.8181,49.0336 39.5211,48.6986 37.5341,50.2426 C36.9121,50.7266 36.3371,51.5726 35.8901,52.3696 C36.2281,50.7456 36.4551,49.0836 36.5671,47.3966 C37.3401,47.2636 39.0881,46.8226 40.8261,45.4336 C42.6901,43.9466 42.8371,41.0306 42.8371,41.0306 C42.8371,41.0306 39.5991,41.2696 37.9461,43.0976 C37.4121,43.6906 36.9921,44.6416 36.6951,45.5066 C36.7791,43.7226 36.7241,41.9546 36.5481,40.2156 C37.2831,39.9486 38.8781,39.2226 40.3071,37.6016 C41.8501,35.8506 41.4991,33.0116 41.4991,33.0116 C41.4991,33.0116 38.4131,33.7926 37.1281,35.8376 C36.7051,36.5136 36.4631,37.5276 36.3231,38.4236 C36.0551,36.6216 35.6641,34.8546 35.1621,33.1416 C35.7831,32.7946 37.2731,31.8206 38.4201,29.9366 C39.6161,27.9826 38.7921,25.3026 38.7921,25.3026 C38.7921,25.3026 35.9461,26.5826 35.0521,28.7746 C34.7221,29.5916 34.6861,30.7876 34.7281,31.7446 C34.1191,29.9086 33.3851,28.1386 32.5581,26.4516 C33.0661,26.0446 34.3971,24.8406 35.2111,22.7596 C36.0301,20.6726 34.7801,18.2256 34.7801,18.2256 C34.7801,18.2256 32.2521,19.9446 31.7631,22.2116 C31.5671,23.1266 31.7831,24.4156 32.0051,25.3606 C31.0561,23.5586 30.0001,21.8626 28.8671,20.2966 C29.2941,19.8116 30.3611,18.4256 30.7891,16.2956 C31.2231,14.1396 29.6031,11.9916 29.6031,11.9916 C29.6031,11.9916 27.4531,14.0806 27.3681,16.3526 C27.3351,17.2466 27.7391,18.4146 28.1091,19.2846 C26.8681,17.6796 25.5501,16.2286 24.1921,14.9656 C24.5201,14.4276 25.3181,12.9076 25.3701,10.7706 C25.4211,8.6176 23.4901,6.8196 23.4901,6.8196 C23.4901,6.8196 21.7731,9.2026 22.0791,11.4086 C22.2041,12.3226 22.8481,13.4466 23.3691,14.2296 C22.8841,13.8106 22.3961,13.4126 21.9071,13.0436 C20.8021,12.1536 19.7151,11.3686 18.6591,10.6696 C18.8521,10.2076 19.4571,8.5296 19.1231,6.3216 C18.8071,4.2346 16.6371,2.8296 16.6371,2.8296 C16.6371,2.8296 15.3831,5.4196 16.0551,7.4976 C16.3721,8.4836 17.3941,9.6196 18.0431,10.2716 C16.0671,9.0166 14.2191,8.0816 12.6011,7.3826 C12.7021,6.9546 13.0311,5.1986 12.3171,3.0716 C11.6571,1.1106 9.3231,0.1236 9.3231,0.1236 C9.3231,0.1236 8.5561,2.8366 9.5561,4.7296 C10.0621,5.6876 11.3771,6.6756 12.0921,7.1686 C10.9821,6.7086 9.9951,6.3636 9.1691,6.1036 C8.9201,5.7896 7.7051,4.3426 6.2181,4.0876 C5.0291,3.8866 3.0311,4.6526 3.0311,4.6526 C3.0311,4.6526 3.9891,5.9566 5.9241,6.6216 C7.2221,7.0686 8.6551,6.4486 9.0851,6.2366 C10.0891,6.5826 11.3391,7.0606 12.7581,7.7216 C11.9251,7.5786 10.2281,7.3586 9.1651,7.7046 C7.1341,8.3716 5.8011,10.8576 5.8011,10.8576 C5.8011,10.8576 8.1651,11.7666 10.0021,10.8116 C11.9661,9.7946 12.9471,8.3286 13.1901,7.9256 C14.7821,8.6906 16.5711,9.6846 18.4561,10.9736 C17.5821,10.6776 16.1451,10.2756 15.1341,10.4186 C12.9751,10.7286 11.1951,12.9916 11.1951,12.9916 C11.1951,12.9916 13.4121,14.3236 15.4261,13.6906 C17.4701,13.0496 18.6991,11.8456 19.0891,11.4136 C19.9241,12.0066 20.7761,12.6556 21.6371,13.3726 C22.4041,13.9706 23.1651,14.6296 23.9141,15.3486 C23.0941,14.8976 21.6931,14.2166 20.6361,14.1836 C18.4101,14.1106 16.2221,16.0696 16.2221,16.0696 C16.2221,16.0696 18.2121,17.8006 20.3491,17.5216 C22.5381,17.2366 23.9911,16.2276 24.4441,15.8716 C25.7951,17.2296 27.0961,18.7736 28.3051,20.4716 C27.5441,19.8776 26.3901,19.0866 25.4301,18.8856 C23.2061,18.4166 20.6611,19.9976 20.6611,19.9976 C20.6611,19.9976 22.3531,22.0906 24.5491,22.1886 C26.7021,22.2876 28.2931,21.5976 28.8801,21.2976 C29.9321,22.8536 30.9061,24.5286 31.7731,26.2976 C31.1181,25.5966 30.2051,24.7486 29.3671,24.4136 C27.2151,23.5496 24.3761,24.6876 24.3761,24.6876 C24.3761,24.6876 25.7061,27.0896 27.8961,27.5776 C29.9551,28.0386 31.6241,27.6776 32.3261,27.4726 C33.1051,29.1956 33.7811,31.0006 34.3291,32.8656 C33.7941,32.0486 33.0331,31.0446 32.2531,30.5616 C30.2471,29.3106 27.1921,29.9516 27.1921,29.9516 C27.1921,29.9516 28.1031,32.6016 30.2151,33.4796 C32.2041,34.3066 33.9471,34.2436 34.6871,34.1616 C35.1691,36.0286 35.5171,37.9526 35.7141,39.9106 C35.3221,38.9826 34.7191,37.7826 33.9981,37.1366 C32.2021,35.5266 29.0171,35.6286 29.0171,35.6286 C29.0171,35.6286 29.4641,38.4536 31.4331,39.7096 C33.2961,40.9026 35.0701,41.1396 35.8201,41.1856 C35.9391,43.0066 35.9211,44.8526 35.7481,46.7086 C35.5131,45.7436 35.1351,44.5656 34.5711,43.8496 C33.0491,41.9106 29.8321,41.4506 29.8321,41.4506 C29.8321,41.4506 29.7811,44.3656 31.5381,45.9786 C33.1541,47.4656 34.8441,48.0306 35.6211,48.2236 C35.4391,50.0066 35.1201,51.7536 34.6861,53.4526 C34.6201,52.4446 34.4451,51.2106 34.0101,50.3996 C32.8261,48.1806 29.6751,47.1486 29.6751,47.1486 C29.6751,47.1486 29.1051,50.0706 30.5831,52.0006 C31.9281,53.7586 33.5011,54.6256 34.2591,54.9676 C33.7651,56.6076 33.1651,58.1986 32.4741,59.7316 C32.5721,58.7446 32.5951,57.5736 32.3191,56.7346 C31.5201,54.2946 28.5381,52.6996 28.5381,52.6996 C28.5381,52.6996 27.4491,55.5356 28.5911,57.7366 C29.6091,59.6976 30.9951,60.8386 31.7111,61.3366 C30.9591,62.8276 30.1251,64.2556 29.2251,65.6126 C29.4791,64.6656 29.6801,63.5676 29.5581,62.7186 C29.1881,60.1266 26.4751,57.9956 26.4751,57.9956 C26.4751,57.9956 24.8751,60.6516 25.6341,63.0666 C26.2981,65.1856 27.4671,66.5716 28.1081,67.2086 C27.0741,68.6206 25.9761,69.9396 24.8301,71.1536 C25.2761,70.2206 25.7161,69.0826 25.7461,68.1616 C25.8311,65.4926 23.4811,62.8696 23.4811,62.8696 C23.4811,62.8696 21.4071,65.2556 21.7421,67.8166 C22.0401,70.1156 23.0031,71.7356 23.5261,72.4686 C22.2401,73.7076 20.9121,74.8176 19.5671,75.7796 C20.1911,74.9126 20.8561,73.8226 21.0511,72.8866 C21.6111,70.2196 19.7141,67.1656 19.7141,67.1656 C19.7141,67.1656 17.2061,69.1966 17.0871,71.8296 C16.9811,74.1756 17.6551,75.9646 18.0481,76.8026 C17.5331,77.1266 17.0161,77.4316 16.5001,77.7106 C15.5641,78.2576 14.6491,78.7416 13.7571,79.1766 C14.4931,78.4426 15.2621,77.5376 15.6011,76.6946 C16.6351,74.1126 15.2721,70.7076 15.2721,70.7076 C15.2721,70.7076 12.3901,72.3026 11.8041,74.9286 C11.2931,77.2166 11.6271,79.1036 11.8741,80.0376 C10.2391,80.7366 8.7121,81.2596 7.3391,81.6546 C8.1991,81.0506 9.1131,80.2896 9.5951,79.5126 C11.0931,77.1006 10.3251,73.4386 10.3251,73.4386 C10.3251,73.4386 7.1481,74.5316 6.0941,77.0666 C5.1831,79.2576 5.1751,81.2006 5.2561,82.1896 C2.2161,82.8766 0.4061,82.9996 0.4061,82.9996 L0.4741,83.6756 L0.5431,84.3496 C0.5431,84.3496 2.8611,84.2036 6.6231,83.2056 C7.1231,84.0406 8.2771,85.6436 10.3441,86.9046 C12.6871,88.3356 15.9021,87.3496 15.9021,87.3496 C15.9021,87.3496 14.3681,83.9356 11.7381,82.8676 C11.0081,82.5706 10.0271,82.4726 9.0971,82.4596 C10.4151,82.0156 11.8441,81.4556 13.3501,80.7516 C13.9691,81.4686 15.3601,82.8296 17.5811,83.7016 C20.0871,84.6826 23.0211,83.1826 23.0211,83.1826 C23.0211,83.1826 20.9581,80.1526 18.2401,79.5686 C17.4711,79.4026 16.4871,79.4806 15.5741,79.6326 C16.0851,79.3586 16.6031,79.0656 17.1251,78.7536 C17.9501,78.2986 18.7781,77.7826 19.6001,77.2136 C20.3351,77.8056 21.8961,78.8596 24.1551,79.3156 C26.7411,79.8356 29.3171,77.8906 29.3171,77.8906 C29.3171,77.8906 26.8111,75.3146 24.0851,75.2126 C23.3481,75.1856 22.4531,75.4076 21.6281,75.6936 C22.7921,74.7506 23.9361,73.7036 25.0411,72.5616 C25.8311,73.0046 27.5371,73.7826 29.8361,73.8376 C32.4191,73.9016 34.5751,71.5846 34.5751,71.5846 C34.5751,71.5846 31.7171,69.5246 29.0711,69.8896 C28.2871,69.9976 27.3721,70.4276 26.5711,70.8906 C27.6111,69.6926 28.6031,68.4096 29.5351,67.0526 C30.3301,67.3416 32.1581,67.8516 34.4741,67.5006 C36.9781,67.1216 38.6641,64.5206 38.6641,64.5206 C38.6641,64.5206 35.5561,63.0176 33.0641,63.8216 C32.2541,64.0816 31.3641,64.7396 30.6291,65.3766 C31.5071,63.9576 32.3151,62.4686 33.0351,60.9216 C33.8551,61.0636 35.7051,61.2436 37.8741,60.5126 C40.2281,59.7196 41.4111,56.9216 41.4111,56.9216 C41.4111,56.9216 38.1561,56.0006 35.8871,57.1996 C35.1641,57.5836 34.4271,58.3506 33.8321,59.0786 C34.4561,57.5396 34.9951,55.9496 35.4251,54.3176 C36.2471,54.3146 38.0551,54.1696 40.0181,53.1006" id="Fill-1" fill="#FFBE2E" mask="url(#mask-2)"></path>
            </g>
            <g id="Group-6" transform="translate(0.000000, 0.876000)">
                <mask id="mask-4" fill="white">
                    <use xlink:href="#path-3"></use>
                </mask>
                <g id="Clip-5"></g>
                <path d="M26.936,87.3496 C26.936,87.3496 30.15,88.3356 32.494,86.9046 C34.561,85.6436 35.713,84.0406 36.214,83.2056 C39.977,84.2036 42.295,84.3496 42.295,84.3496 L42.364,83.6756 L42.434,82.9996 C42.434,82.9996 40.624,82.8766 37.582,82.1896 C37.663,81.2006 37.656,79.2576 36.744,77.0666 C35.69,74.5316 32.513,73.4386 32.513,73.4386 C32.513,73.4386 31.745,77.1006 33.241,79.5126 C33.723,80.2896 34.639,81.0506 35.499,81.6546 C34.126,81.2596 32.6,80.7366 30.963,80.0376 C31.211,79.1036 31.544,77.2166 31.034,74.9286 C30.449,72.3026 27.566,70.7076 27.566,70.7076 C27.566,70.7076 26.204,74.1126 27.237,76.6946 C27.576,77.5366 28.345,78.4426 29.082,79.1766 C28.188,78.7416 27.272,78.2576 26.336,77.7106 C25.822,77.4316 25.305,77.1266 24.79,76.8026 C25.185,75.9646 25.856,74.1756 25.75,71.8296 C25.633,69.1966 23.123,67.1656 23.123,67.1656 C23.123,67.1656 21.228,70.2196 21.787,72.8866 C21.983,73.8226 22.646,74.9126 23.271,75.7806 C21.928,74.8176 20.599,73.7076 19.313,72.4686 C19.834,71.7356 20.798,70.1156 21.097,67.8166 C21.432,65.2556 19.356,62.8696 19.356,62.8696 C19.356,62.8696 17.007,65.4926 17.092,68.1616 C17.123,69.0826 17.563,70.2216 18.008,71.1556 C16.862,69.9416 15.764,68.6206 14.732,67.2106 C15.371,66.5716 16.54,65.1856 17.203,63.0666 C17.962,60.6516 16.365,57.9956 16.365,57.9956 C16.365,57.9956 13.649,60.1266 13.28,62.7186 C13.158,63.5676 13.359,64.6656 13.613,65.6126 C12.713,64.2556 11.879,62.8276 11.126,61.3366 C11.843,60.8386 13.231,59.6976 14.247,57.7366 C15.39,55.5356 14.301,52.6996 14.301,52.6996 C14.301,52.6996 11.317,54.2946 10.519,56.7346 C10.245,57.5736 10.267,58.7446 10.364,59.7316 C9.672,58.1986 9.073,56.6076 8.579,54.9676 C9.336,54.6256 10.91,53.7586 12.254,52.0006 C13.733,50.0706 13.165,47.1486 13.165,47.1486 C13.165,47.1486 10.013,48.1806 8.83,50.3996 C8.393,51.2106 8.22,52.4446 8.154,53.4526 C7.718,51.7536 7.4,50.0066 7.217,48.2236 C7.994,48.0306 9.684,47.4656 11.301,45.9786 C13.057,44.3656 13.005,41.4506 13.005,41.4506 C13.005,41.4506 9.789,41.9106 8.269,43.8496 C7.704,44.5656 7.325,45.7436 7.089,46.7076 C6.917,44.8526 6.9,43.0066 7.019,41.1856 C7.769,41.1396 9.541,40.9026 11.406,39.7096 C13.373,38.4536 13.821,35.6286 13.821,35.6286 C13.821,35.6286 10.637,35.5266 8.84,37.1366 C8.12,37.7826 7.516,38.9816 7.124,39.9106 C7.321,37.9526 7.669,36.0286 8.151,34.1616 C8.892,34.2436 10.634,34.3066 12.623,33.4796 C14.736,32.6016 15.648,29.9516 15.648,29.9516 C15.648,29.9516 12.592,29.3106 10.583,30.5616 C9.805,31.0446 9.043,32.0466 8.509,32.8646 C9.058,30.9986 9.734,29.1956 10.513,27.4726 C11.214,27.6776 12.884,28.0376 14.942,27.5776 C17.132,27.0896 18.462,24.6876 18.462,24.6876 C18.462,24.6876 15.623,23.5496 13.47,24.4126 C12.632,24.7486 11.72,25.5966 11.065,26.2966 C11.932,24.5266 12.906,22.8536 13.958,21.2976 C14.546,21.5976 16.137,22.2866 18.29,22.1886 C20.485,22.0906 22.177,19.9976 22.177,19.9976 C22.177,19.9976 19.632,18.4166 17.408,18.8856 C16.449,19.0866 15.295,19.8776 14.534,20.4716 C15.742,18.7736 17.042,17.2296 18.394,15.8726 C18.847,16.2276 20.3,17.2366 22.489,17.5216 C24.625,17.8006 26.618,16.0696 26.618,16.0696 C26.618,16.0696 24.428,14.1106 22.201,14.1836 C21.147,14.2166 19.745,14.8956 18.924,15.3486 C19.671,14.6296 20.434,13.9706 21.203,13.3726 C22.062,12.6556 22.914,12.0066 23.749,11.4136 C24.141,11.8456 25.369,13.0496 27.413,13.6906 C29.426,14.3236 31.643,12.9916 31.643,12.9916 C31.643,12.9916 29.863,10.7286 27.703,10.4186 C26.694,10.2756 25.255,10.6776 24.381,10.9736 C26.269,9.6846 28.056,8.6906 29.649,7.9256 C29.892,8.3286 30.872,9.7946 32.835,10.8116 C34.672,11.7666 37.037,10.8576 37.037,10.8576 C37.037,10.8576 35.704,8.3706 33.671,7.7036 C32.612,7.3586 30.914,7.5786 30.081,7.7216 C31.5,7.0606 32.748,6.5826 33.752,6.2366 C34.185,6.4486 35.618,7.0686 36.915,6.6216 C38.85,5.9566 39.808,4.6526 39.808,4.6526 C39.808,4.6526 37.809,3.8866 36.621,4.0876 C35.134,4.3426 33.918,5.7896 33.668,6.1036 C32.842,6.3636 31.855,6.7086 30.745,7.1686 C31.46,6.6776 32.774,5.6896 33.282,4.7296 C34.283,2.8366 33.515,0.1236 33.515,0.1236 C33.515,0.1236 31.181,1.1106 30.521,3.0716 C29.806,5.1986 30.137,6.9546 30.236,7.3826 C28.62,8.0816 26.77,9.0166 24.795,10.2706 C25.444,9.6196 26.467,8.4836 26.784,7.4976 C27.455,5.4196 26.202,2.8296 26.202,2.8296 C26.202,2.8296 24.032,4.2346 23.716,6.3216 C23.381,8.5296 23.987,10.2076 24.18,10.6696 C23.123,11.3686 22.036,12.1536 20.932,13.0436 C20.442,13.4126 19.954,13.8106 19.469,14.2296 C19.99,13.4466 20.633,12.3226 20.761,11.4086 C21.067,9.2026 19.349,6.8196 19.349,6.8196 C19.349,6.8196 17.416,8.6176 17.468,10.7706 C17.521,12.9076 18.318,14.4276 18.646,14.9656 C17.289,16.2286 15.969,17.6796 14.731,19.2846 C15.099,18.4146 15.503,17.2466 15.47,16.3526 C15.385,14.0806 13.235,11.9916 13.235,11.9916 C13.235,11.9916 11.613,14.1396 12.048,16.2956 C12.477,18.4256 13.543,19.8116 13.971,20.2966 C12.837,21.8626 11.782,23.5566 10.832,25.3606 C11.057,24.4146 11.272,23.1266 11.075,22.2116 C10.586,19.9446 8.058,18.2256 8.058,18.2256 C8.058,18.2256 6.808,20.6726 7.627,22.7596 C8.442,24.8406 9.771,26.0446 10.28,26.4516 C9.454,28.1386 8.719,29.9086 8.111,31.7446 C8.152,30.7866 8.116,29.5916 7.784,28.7746 C6.892,26.5826 4.045,25.3026 4.045,25.3026 C4.045,25.3026 3.223,27.9826 4.416,29.9366 C5.566,31.8206 7.056,32.7946 7.678,33.1416 C7.174,34.8546 6.783,36.6206 6.514,38.4226 C6.374,37.5266 6.133,36.5116 5.709,35.8376 C4.426,33.7926 1.338,33.0116 1.338,33.0116 C1.338,33.0116 0.987,35.8506 2.531,37.6016 C3.959,39.2226 5.555,39.9486 6.289,40.2156 C6.115,41.9536 6.06,43.7216 6.144,45.5066 C5.845,44.6416 5.427,43.6886 4.893,43.0976 C3.239,41.2696 -0.001,41.0306 -0.001,41.0306 C-0.001,41.0306 0.148,43.9466 2.01,45.4336 C3.748,46.8226 5.498,47.2616 6.272,47.3966 C6.382,49.0836 6.611,50.7456 6.948,52.3696 C6.501,51.5726 5.926,50.7266 5.304,50.2426 C3.317,48.6986 0.021,49.0336 0.021,49.0336 C0.021,49.0336 0.687,51.9356 2.823,53.1006 C4.783,54.1696 6.59,54.3146 7.413,54.3176 C7.843,55.9496 8.38,57.5396 9.006,59.0786 C8.412,58.3506 7.674,57.5836 6.952,57.1996 C4.68,56.0006 1.427,56.9216 1.427,56.9216 C1.427,56.9216 2.611,59.7196 4.961,60.5126 C7.134,61.2436 8.983,61.0636 9.802,60.9216 C10.522,62.4686 11.332,63.9576 12.209,65.3766 C11.474,64.7376 10.582,64.0816 9.775,63.8216 C7.284,63.0176 4.175,64.5206 4.175,64.5206 C4.175,64.5206 5.862,67.1216 8.364,67.5006 C10.678,67.8516 12.508,67.3416 13.304,67.0526 C14.235,68.4096 15.227,69.6926 16.267,70.8906 C15.465,70.4276 14.551,69.9976 13.767,69.8896 C11.12,69.5246 8.263,71.5846 8.263,71.5846 C8.263,71.5846 10.418,73.9016 13.001,73.8376 C15.302,73.7826 17.005,73.0046 17.798,72.5616 C18.903,73.7036 20.045,74.7506 21.21,75.6936 C20.384,75.4076 19.49,75.1856 18.752,75.2126 C16.028,75.3146 13.522,77.8906 13.522,77.8906 C13.522,77.8906 16.097,79.8356 18.683,79.3156 C20.943,78.8596 22.502,77.8076 23.236,77.2136 C24.061,77.7826 24.886,78.2986 25.712,78.7536 C26.236,79.0656 26.751,79.3586 27.263,79.6326 C26.352,79.4806 25.367,79.4026 24.598,79.5686 C21.879,80.1526 19.817,83.1826 19.817,83.1826 C19.817,83.1826 22.751,84.6826 25.257,83.7016 C27.479,82.8296 28.868,81.4686 29.488,80.7516 C30.994,81.4556 32.421,82.0156 33.741,82.4596 C32.811,82.4726 31.83,82.5706 31.1,82.8676 C28.471,83.9356 26.936,87.3496 26.936,87.3496" id="Fill-4" fill="#FFBE2E" mask="url(#mask-4)"></path>
            </g>
            <path d="M33.9224,21.6104 L33.1804,21.6104 C32.7874,21.6104 32.6014,21.6014 32.4034,21.5774 C32.6864,21.3024 32.8484,21.1164 33.0694,20.8084 L33.5394,20.8084 C33.7094,21.1074 33.8194,21.3304 33.9224,21.6104 L33.9224,21.6104 Z M34.4094,20.8084 L34.8784,20.8084 C35.0574,20.8084 35.2194,20.8174 35.3564,20.8254 C35.2354,20.9374 35.1934,20.9794 35.0494,21.0994 C35.2874,21.2784 35.4664,21.4404 35.5954,21.6104 L34.0424,21.6104 L34.7504,21.3884 C34.5634,21.0554 34.5114,20.9704 34.4094,20.8084 L34.4094,20.8084 Z M36.4474,20.8174 L36.9694,20.8174 C37.1484,21.0994 37.3104,21.3884 37.4034,21.6104 L35.7574,21.6104 C36.0284,21.3634 36.2264,21.1414 36.4474,20.8174 L36.4474,20.8174 Z M37.8474,22.3704 L37.8474,22.9244 L35.9954,22.9244 L35.9874,22.3704 L37.8474,22.3704 Z M33.2484,24.2384 C33.3174,23.9314 33.3254,23.8804 33.3594,23.6674 L35.1094,23.6674 L35.1174,24.2384 L33.2484,24.2384 Z M32.9254,19.3924 C32.7284,20.0324 32.3104,20.5704 31.5854,21.1244 C31.7894,21.3124 31.9684,21.5334 32.1404,21.8154 C32.2594,21.7054 32.3024,21.6714 32.3964,21.5774 L32.3964,22.4054 C32.6264,22.3794 32.8484,22.3704 33.1804,22.3704 L35.0904,22.3704 L35.1014,22.9244 L33.3514,22.9244 C32.9334,22.9244 32.6944,22.9164 32.5404,22.8994 C32.5324,23.0784 32.4814,23.4544 32.4124,23.8294 C32.3024,24.3924 32.1654,24.8444 31.9264,25.4074 L32.9254,25.4234 C32.9844,25.2204 33.0104,25.1434 33.0524,24.9984 L34.5274,24.9984 C33.8124,25.6544 32.8054,26.1584 31.6194,26.4394 C31.8744,26.7464 32.0034,26.9354 32.1734,27.2514 C33.3594,26.8664 34.3834,26.2524 35.1344,25.4674 L35.1514,26.4144 L35.1514,26.6364 C35.1514,26.9684 35.1424,27.1224 35.1014,27.3694 L36.1064,27.3694 C36.0644,27.1054 36.0474,26.8754 36.0384,26.4224 L36.0214,24.9984 L38.2234,24.9984 C38.1624,25.9534 38.1384,25.9974 37.6674,25.9974 C37.4804,25.9974 37.0704,25.9534 36.7464,25.9104 C36.8574,26.2094 36.9084,26.4064 36.9594,26.7464 C37.3264,26.7734 37.4964,26.7814 37.7534,26.7814 C38.3334,26.7814 38.5894,26.7134 38.7504,26.5244 C38.9224,26.3294 38.9814,26.1074 39.0674,25.2794 C39.0844,25.0664 39.1184,24.7934 39.1434,24.4684 C39.1524,24.3754 39.1614,24.3234 39.1784,24.2054 C38.9734,24.2304 38.7694,24.2384 38.4434,24.2384 L36.0124,24.2384 L36.0044,23.6674 L37.9744,23.6674 C38.3174,23.6674 38.5554,23.6754 38.7694,23.6924 C38.7424,23.5134 38.7344,23.3774 38.7344,23.0694 L38.7344,22.1914 C38.7344,21.8834 38.7424,21.7474 38.7694,21.5774 C38.5474,21.6014 38.3934,21.6104 37.9744,21.6104 L37.5654,21.6104 L38.2654,21.4064 C38.1284,21.1844 38.0514,21.0554 37.8894,20.8174 L38.5554,20.8174 C38.9394,20.8174 39.1874,20.8254 39.4504,20.8604 L39.4504,19.9804 C39.1694,20.0244 38.9734,20.0324 38.5124,20.0324 L36.8924,20.0324 C37.0274,19.7504 37.0354,19.7334 37.1054,19.5544 L36.2004,19.3924 C36.0474,19.8954 35.8424,20.2794 35.5094,20.6644 L35.5094,19.9724 C35.3044,20.0154 35.0824,20.0244 34.6734,20.0244 L33.5814,20.0244 C33.6834,19.8534 33.7184,19.7854 33.8364,19.5634 L32.9254,19.3924 Z" id="Fill-7" fill="#FFBE2E"></path>
            <path d="M43.3706,22.1651 C43.6776,21.7911 43.7796,21.6531 43.9496,21.4061 C43.9166,21.7561 43.9076,22.0291 43.9076,22.4301 L43.9076,24.1951 L41.7316,24.1951 L43.3706,22.1651 Z M40.4706,24.1441 L40.4706,25.1931 C40.7596,25.1691 41.0326,25.1601 41.5356,25.1601 L43.8996,25.1601 L43.8996,25.7481 C43.8996,26.1761 43.8816,26.4391 43.8316,26.7381 L45.0416,26.7381 C44.9916,26.4231 44.9736,26.2001 44.9736,25.7671 L44.9736,25.1601 L45.2806,25.1601 C45.6396,25.1691 45.8186,25.1771 46.1346,25.2211 L46.1346,24.1281 C45.8186,24.1701 45.6146,24.1861 45.2716,24.1861 L44.9736,24.1861 L44.9736,21.3891 C44.9736,20.7401 44.9816,20.4411 45.0336,19.9471 L43.8816,19.9471 C43.6856,20.2551 43.5496,20.4341 43.1736,20.8861 L41.1516,23.3601 C40.8536,23.7181 40.7596,23.8291 40.4706,24.1441 L40.4706,24.1441 Z" id="Fill-9" fill="#FFBE2E"></path>
            <path d="M49.2437,23.4873 C48.4177,23.4873 47.8887,22.9513 47.8887,22.1233 C47.8887,21.3023 48.4597,20.7233 49.2787,20.7233 C50.1237,20.7233 50.7117,21.2953 50.7117,22.0973 C50.7117,22.8903 50.0807,23.4873 49.2437,23.4873 M49.2787,25.9103 C48.8437,25.9103 48.5117,25.7913 48.2977,25.5603 C48.1947,25.4503 48.1357,25.3393 48.0327,25.0913 L46.8557,25.3993 C47.1027,25.8933 47.2647,26.1153 47.5557,26.3453 C47.9817,26.6863 48.4857,26.8403 49.2017,26.8403 C50.0127,26.8403 50.5657,26.6443 51.0187,26.1923 C51.5817,25.6463 51.9237,24.5203 51.9237,23.2313 C51.9237,22.5323 51.8387,21.9253 51.6757,21.4653 C51.3177,20.4243 50.4217,19.7853 49.3287,19.7853 C48.7407,19.7853 48.2287,19.9143 47.8367,20.1613 C47.1367,20.5873 46.7527,21.2953 46.7527,22.1653 C46.7527,23.5393 47.6577,24.4093 49.0737,24.4093 C49.6367,24.4093 50.0717,24.2823 50.4557,24.0163 C50.6517,23.8713 50.7467,23.7693 50.9087,23.5303 C50.8647,24.5373 50.6697,25.1513 50.2427,25.5603 C50.0037,25.8003 49.6877,25.9103 49.2787,25.9103" id="Fill-11" fill="#FFBE2E"></path>
            <mask id="mask-6" fill="white">
                <use xlink:href="#path-5"></use>
            </mask>
            <g id="Clip-14"></g>
            <path d="M56.466,24.214 L58.07,24.214 L58.07,22.481 L56.466,22.481 L56.466,24.214 Z M59.008,21.646 C58.786,21.671 58.555,21.679 58.18,21.679 L56.363,21.679 C55.988,21.679 55.749,21.671 55.535,21.646 C55.561,21.867 55.57,22.08 55.57,22.328 L55.57,24.367 C55.57,24.622 55.561,24.818 55.535,25.049 C55.792,25.023 55.937,25.015 56.363,25.015 L58.18,25.015 C58.539,25.015 58.76,25.023 59.008,25.049 C58.983,24.828 58.974,24.64 58.974,24.367 L58.974,22.328 C58.974,22.063 58.983,21.85 59.008,21.646 L59.008,21.646 Z" id="Fill-13" fill="#FFBE2E" mask="url(#mask-6)"></path>
            <path d="M54.623,26.03 L59.938,26.03 L59.938,20.707 L54.623,20.707 L54.623,26.03 Z M53.633,27.345 L54.623,27.345 L54.623,26.875 L59.938,26.875 L59.938,27.345 L60.936,27.345 C60.902,27.131 60.884,26.705 60.884,26.244 L60.884,20.834 C60.884,20.408 60.902,20.126 60.936,19.811 C60.613,19.846 60.347,19.854 59.921,19.854 L54.631,19.854 C54.214,19.854 53.949,19.846 53.633,19.811 C53.667,20.126 53.685,20.434 53.685,20.834 L53.685,26.235 C53.685,26.705 53.667,27.07 53.633,27.345 L53.633,27.345 Z" id="Fill-15" fill="#FFBE2E" mask="url(#mask-6)"></path>
            <path d="M24.562,40.331 L29.88,40.331 L29.88,37.658 L24.562,37.658 L24.562,40.331 Z M24.562,35.83 L29.88,35.83 L29.88,33.351 L24.562,33.351 L24.562,35.83 Z M22.453,42.888 L24.562,42.888 L24.562,42.249 L29.88,42.249 L29.88,42.888 L32.03,42.888 C31.978,42.364 31.953,41.866 31.953,41.137 L31.953,32.838 C31.953,32.416 31.978,31.942 32.017,31.394 C31.621,31.444 31.199,31.458 30.597,31.458 L23.936,31.458 C23.348,31.458 22.887,31.432 22.465,31.394 C22.503,31.918 22.53,32.379 22.53,32.852 L22.53,41.137 C22.53,41.776 22.503,42.364 22.453,42.888 L22.453,42.888 Z" id="Fill-16" fill="#FFBE2E" mask="url(#mask-6)"></path>
            <path d="M38.937,37.6455 L38.937,38.8355 L37.99,38.8355 L37.427,38.8355 C38.131,38.0045 38.528,37.4155 38.987,36.5465 C38.95,36.9815 38.937,37.2495 38.937,37.6455 M42.517,38.8355 L42.031,38.8355 L40.958,38.8355 L40.958,37.6215 C40.958,37.4035 40.944,37.2615 40.893,36.5345 C41.392,37.4155 41.851,38.0675 42.517,38.8355 M38.937,32.1725 L38.937,32.9545 L35.918,32.9545 C35.291,32.9545 34.793,32.9285 34.283,32.8645 L34.283,34.8835 C34.806,34.8215 35.291,34.7935 35.918,34.7935 L37.99,34.7935 C37.518,35.7025 37.21,36.1505 36.623,36.8395 C35.791,37.8245 34.947,38.5535 33.885,39.1935 C34.32,39.7815 34.538,40.2035 34.895,41.0975 C35.664,40.5865 36.11,40.2035 36.839,39.4755 L36.839,40.6515 C37.223,40.6125 37.632,40.5865 38.106,40.5865 L38.937,40.5865 L38.937,41.2635 C38.937,41.8905 38.898,42.4665 38.847,42.9775 L41.046,42.9775 C40.983,42.4795 40.958,41.9035 40.958,41.2635 L40.958,40.5865 L41.877,40.5865 C42.364,40.5865 42.747,40.6125 43.156,40.6515 L43.156,39.4995 C43.795,40.1135 44.255,40.4855 45.151,41.0735 C45.496,40.2035 45.739,39.7435 46.186,39.1035 C45.086,38.5285 44.204,37.8515 43.309,36.8915 C42.657,36.1885 42.287,35.6515 41.838,34.7935 L44.102,34.7935 C44.754,34.7935 45.215,34.8215 45.764,34.8835 L45.764,32.8645 C45.278,32.9285 44.767,32.9545 44.102,32.9545 L40.958,32.9545 L40.958,32.1725 C40.958,31.6105 40.97,31.2785 41.033,30.9725 L38.847,30.9725 C38.912,31.2915 38.937,31.6105 38.937,32.1725" id="Fill-17" fill="#FFBE2E" mask="url(#mask-6)"></path>
            <path d="M54.0786,33.4004 C53.9626,33.7334 53.9126,33.8484 53.7706,34.1424 L52.2496,34.1424 C52.1346,33.8094 52.0706,33.6434 51.9686,33.4004 L54.0786,33.4004 Z M51.1876,38.2724 L52.9136,38.2724 L52.9136,38.8234 L51.5846,38.8234 C51.3036,38.8234 51.1756,38.8234 50.8676,38.8094 C50.9966,38.5924 51.0606,38.5034 51.1876,38.2724 L51.1876,38.2724 Z M50.1006,36.5964 C49.9346,36.9564 49.6276,37.4664 49.3856,37.7994 C49.4366,37.2244 49.4486,36.7774 49.4486,36.2144 C49.4486,36.1114 49.4486,35.9844 49.4366,35.8054 L50.4086,35.8054 C50.2556,36.2524 50.2036,36.3934 50.1006,36.5964 L50.1006,36.5964 Z M51.9036,31.7134 L49.0276,31.7134 C48.3496,31.7134 47.8896,31.6874 47.5056,31.6364 L47.5056,33.4524 C47.8516,33.4134 48.0936,33.4004 48.8736,33.4004 L49.8706,33.4004 C50.0246,33.7084 50.0636,33.8224 50.1656,34.1424 L48.9636,34.1424 C48.4646,34.1424 48.0676,34.1294 47.5176,34.0914 C47.5696,34.6024 47.5826,34.9874 47.5826,35.5994 C47.5826,37.2494 47.4676,38.5534 47.2246,39.5504 C47.0706,40.1904 46.9306,40.5744 46.5976,41.2014 C47.2366,41.8394 47.4796,42.1594 48.0176,43.0674 C48.6306,42.0824 49.0156,40.8424 49.2586,39.0514 C49.5906,39.4614 49.6916,39.6154 49.9476,40.0504 C50.1786,39.7684 50.2556,39.6784 50.4216,39.4614 L50.4216,40.4214 C50.8176,40.3954 51.1376,40.3824 51.5976,40.3824 L52.9136,40.3824 L52.9136,40.9584 L50.2796,40.9584 C49.7176,40.9584 49.3976,40.9444 49.0526,40.9064 L49.0526,42.7094 C49.5516,42.6714 49.8956,42.6584 50.3316,42.6584 L57.2486,42.6584 C57.7466,42.6584 58.1186,42.6844 58.5406,42.7214 L58.5406,40.8944 C58.1706,40.9314 57.7986,40.9584 57.3006,40.9584 L54.8066,40.9584 L54.8066,40.3824 L56.5466,40.3824 C57.1456,40.3824 57.2616,40.3824 57.6716,40.4214 L57.6716,38.7714 C57.3766,38.8094 57.1586,38.8234 56.5466,38.8234 L54.8066,38.8234 L54.8066,38.2724 L56.8526,38.2724 C57.5176,38.2724 57.6576,38.2724 58.0546,38.3104 L58.0546,36.6244 C57.7336,36.6614 57.5176,36.6734 56.8786,36.6734 L54.8066,36.6734 C54.8196,36.3684 54.8326,36.2774 54.8576,36.0604 L52.8506,36.0604 C52.8886,36.2144 52.9006,36.4184 52.9136,36.6734 L51.9556,36.6734 L52.1346,36.2394 L50.6246,35.8054 L57.2616,35.8054 C57.8376,35.8054 58.1946,35.8184 58.6296,35.8684 L58.6296,34.0914 C58.2596,34.1294 57.9126,34.1424 57.2616,34.1424 L55.7916,34.1424 C55.9436,33.8864 55.9586,33.8614 56.1616,33.4004 L56.9426,33.4004 C57.7226,33.4004 57.9646,33.4134 58.3496,33.4524 L58.3496,31.6364 C57.9526,31.6874 57.4916,31.7134 56.8016,31.7134 L53.9366,31.7134 C53.9366,31.4064 53.9626,31.2144 54.0016,30.9844 L51.8406,30.9844 C51.8796,31.2274 51.9036,31.4194 51.9036,31.7134 L51.9036,31.7134 Z" id="Fill-18" fill="#FFBE2E" mask="url(#mask-6)"></path>
            <path d="M66.7388,34.2959 C66.6368,34.5519 66.5968,34.6409 66.4698,34.9099 L64.7058,34.9099 C64.6408,34.7179 64.6028,34.6149 64.4628,34.2959 L66.7388,34.2959 Z M63.1208,32.7359 C62.7488,31.9179 62.6218,31.6619 62.2768,31.0999 L60.4608,31.7139 C60.8188,32.1489 60.9588,32.3519 61.1518,32.7359 C60.4608,32.7359 60.1278,32.7109 59.7178,32.6589 L59.7178,34.3599 C60.1548,34.3219 60.6908,34.2959 61.3048,34.2959 L62.4288,34.2959 C62.5698,34.5389 62.6218,34.6279 62.7488,34.9099 L61.4708,34.9099 C60.8828,34.9099 60.6008,34.8979 60.2298,34.8579 L60.2298,36.3289 C60.6268,36.2909 60.9218,36.2769 61.4708,36.2769 L64.5638,36.2769 L64.5638,36.6739 L62.0078,36.6739 C61.4588,36.6739 61.1248,36.6609 60.7668,36.6239 L60.7668,37.9789 C61.1248,37.9409 61.4708,37.9279 62.0078,37.9279 L64.5638,37.9279 L64.5638,38.3229 L61.4448,38.3229 C60.7548,38.3229 60.2568,38.2979 59.8078,38.2479 L59.8078,39.8579 C60.3208,39.8079 60.8188,39.7809 61.4588,39.7809 L63.2478,39.7809 C62.3408,40.4729 61.1638,40.9189 59.4638,41.2139 C59.9618,41.8399 60.2178,42.2749 60.4998,42.9519 C61.4318,42.6719 62.1358,42.3769 62.8778,41.9679 C63.5668,41.5839 63.9388,41.3029 64.6028,40.6759 C64.5918,41.0349 64.5918,41.0729 64.5918,41.3929 L64.5918,41.7759 C64.5918,42.2879 64.5638,42.6459 64.5018,43.0419 L66.5348,43.0419 C66.4828,42.6969 66.4698,42.3249 66.4698,41.7889 L66.4698,41.3799 C66.4698,41.0609 66.4578,40.9959 66.4308,40.6509 C67.5188,41.7119 68.8488,42.4149 70.7658,42.9519 C71.0488,42.2109 71.2398,41.8539 71.7248,41.1369 C69.9478,40.8689 68.7078,40.4339 67.8378,39.7809 L69.8078,39.7809 C70.4338,39.7809 70.8938,39.8079 71.4308,39.8579 L71.4308,38.2479 C71.0608,38.2979 70.5358,38.3229 69.7948,38.3229 L66.4698,38.3229 L66.4698,37.9279 L69.1938,37.9279 C69.7308,37.9279 70.0768,37.9409 70.4458,37.9789 L70.4458,36.6239 C70.0638,36.6609 69.7308,36.6739 69.1938,36.6739 L66.4698,36.6739 L66.4698,36.2769 L69.7308,36.2769 C70.2928,36.2769 70.5748,36.2909 70.9838,36.3289 L70.9838,34.8579 C70.5998,34.8979 70.3058,34.9099 69.7308,34.9099 L68.5288,34.9099 C68.6428,34.6799 68.6818,34.6279 68.8368,34.2959 L69.8978,34.2959 C70.5098,34.2959 71.0608,34.3219 71.4948,34.3599 L71.4948,32.6589 C71.0738,32.7109 70.7928,32.7359 70.0248,32.7359 C70.2558,32.4029 70.4088,32.1599 70.6648,31.7139 L68.8488,31.0869 C68.6188,31.7139 68.4398,32.0709 68.0308,32.7359 L67.6458,32.7359 L67.6458,31.9049 C67.6458,31.5219 67.6588,31.2009 67.6978,30.9839 L65.7798,30.9839 C65.8188,31.2279 65.8308,31.4579 65.8308,31.8159 L65.8308,32.7359 L65.3068,32.7359 L65.3068,31.8159 C65.3068,31.4439 65.3198,31.2009 65.3448,30.9839 L63.4268,30.9839 C63.4658,31.2399 63.4908,31.5479 63.4908,31.9049 L63.4908,32.7359 L63.1208,32.7359 Z" id="Fill-19" fill="#FFBE2E" mask="url(#mask-6)"></path>
            <path d="M22.3374,57.1739 C22.0434,57.1739 21.8254,57.1609 21.3524,57.1099 C21.6084,57.7759 21.6974,58.1709 21.7744,58.9269 C22.1834,58.9509 22.3884,58.9639 22.6824,58.9639 C24.2554,58.9639 24.6514,58.6449 24.6514,57.3659 L24.6514,54.1439 C24.8954,54.0669 25.0224,54.0289 25.5984,53.8509 L25.5984,52.0979 C25.1114,52.2389 25.0614,52.2509 24.6514,52.3659 L24.6514,50.9219 L24.8954,50.9219 C25.0864,50.9219 25.2524,50.9349 25.4834,50.9599 L25.4834,49.1189 C25.2004,49.1569 25.1244,49.1569 24.8954,49.1569 L24.6514,49.1569 L24.6514,48.2749 C24.6514,47.6099 24.6644,47.3659 24.7154,46.9699 L22.6824,46.9699 C22.7334,47.3789 22.7464,47.6219 22.7464,48.2869 L22.7464,49.1569 L22.3764,49.1569 C21.9914,49.1569 21.7244,49.1449 21.4294,49.0929 L21.4294,50.9729 C21.7884,50.9349 22.0684,50.9219 22.3634,50.9219 L22.7464,50.9219 L22.7464,52.8149 C21.7114,53.0059 21.7114,53.0059 21.3274,53.0319 L21.6344,55.0009 C21.7884,54.9489 21.8384,54.9369 22.1974,54.8349 C22.5034,54.7579 22.5034,54.7579 22.7464,54.6939 L22.7464,56.7519 C22.7464,57.1099 22.6824,57.1739 22.3374,57.1739" id="Fill-20" fill="#FFBE2E" mask="url(#mask-6)"></path>
            <path d="M30.354,53.1465 C29.958,53.8635 29.639,54.2965 29.139,54.8215 C28.603,54.2965 28.231,53.8245 27.874,53.1465 L30.354,53.1465 Z M29.153,57.3025 C30.201,58.0825 31.095,58.5305 32.592,59.0285 C32.784,58.3885 33.079,57.7495 33.488,57.0205 C32.501,56.7915 31.492,56.4195 30.649,55.9465 C31.428,55.0905 32.003,54.1825 32.553,52.9555 C32.695,52.6355 32.758,52.4945 32.874,52.3155 L31.94,51.3565 C31.671,51.3815 31.416,51.3955 30.981,51.3955 L30.098,51.3955 L30.098,50.2065 L31.504,50.2065 C32.042,50.2065 32.605,50.2305 33.091,50.2825 L33.091,48.3135 C32.605,48.3635 32.157,48.3905 31.504,48.3905 L30.098,48.3905 L30.098,48.2495 C30.098,47.5335 30.111,47.3545 30.163,46.9695 L28.129,46.9695 C28.181,47.3545 28.194,47.5445 28.194,48.2615 L28.194,48.3905 L27.324,48.3905 C26.607,48.3905 26.135,48.3635 25.726,48.3135 L25.726,50.2695 C26.161,50.2305 26.698,50.2065 27.324,50.2065 L28.194,50.2065 L28.194,51.3955 L27.336,51.3955 C26.8,51.3955 26.314,51.3695 25.892,51.3315 L25.892,53.1845 C26.225,53.1595 26.544,53.1465 27.016,53.1465 L27.502,53.1465 L26.096,53.7345 C26.634,54.6685 27.043,55.2565 27.682,55.9725 C26.837,56.4845 25.777,56.9065 24.677,57.1485 C25.086,57.7615 25.317,58.2225 25.623,59.0155 C27.145,58.5305 28.078,58.0695 29.153,57.3025 L29.153,57.3025 Z" id="Fill-21" fill="#FFBE2E" mask="url(#mask-6)"></path>
            <path d="M40.9312,49.3877 L40.9312,48.5307 L40.9312,48.1087 C41.2382,48.5567 41.3672,48.7847 41.6342,49.3877 L40.9312,49.3877 Z M42.9642,57.0597 C42.5552,57.0597 42.1082,57.0337 41.5452,56.9567 C41.8132,57.6217 41.9152,58.0567 41.9672,58.8237 C42.8742,58.8497 42.8742,58.8497 43.0532,58.8497 C43.7572,58.8497 44.2552,58.7847 44.5112,58.6697 C45.0102,58.4527 45.2282,58.0047 45.2282,57.1997 L45.2282,52.2507 C45.6502,52.2637 45.7902,52.2637 46.0712,52.3027 L46.0712,50.4107 C45.7642,50.4487 45.5212,50.4607 45.0102,50.4607 L42.9892,50.4607 L42.7212,50.4607 L42.7212,49.3357 C42.3512,49.3747 42.1702,49.3877 41.6472,49.3877 L42.7852,48.7227 L42.7852,49.3487 C43.1182,49.3107 43.3862,49.2977 43.8222,49.2977 L44.8432,49.2977 C45.3172,49.2977 45.5852,49.3107 45.8922,49.3487 L45.8922,47.4557 C45.6102,47.4947 45.3422,47.5077 44.8432,47.5077 L43.8222,47.5077 C43.3482,47.5077 43.1052,47.4947 42.7852,47.4557 L42.7852,48.1727 C42.5422,47.7757 42.3512,47.5077 41.9922,47.0857 L40.9442,47.6867 C40.9572,47.3157 40.9702,47.2397 41.0072,46.9567 L39.0382,46.9567 C39.1032,47.4307 39.1162,47.7387 39.1162,48.5307 L39.1162,49.3877 L38.4632,49.3877 C37.8242,49.3877 37.5932,49.3747 37.2362,49.3237 L37.2362,50.4357 L36.2392,49.7967 C36.1372,50.0517 35.8422,50.5507 35.5092,51.0247 C34.9982,51.7527 34.4232,52.3407 33.7712,52.8017 C34.0522,53.5307 34.1672,54.0027 34.3202,54.9237 C34.5632,54.7437 34.7162,54.6047 34.9342,54.3867 C34.9342,54.6687 34.9342,54.6687 34.9212,55.1027 L34.9212,55.6657 L34.9212,57.4557 C34.9212,58.1457 34.8952,58.5027 34.8452,58.9397 L36.7882,58.9397 C36.7492,58.5417 36.7372,58.2357 36.7372,57.5337 L36.7372,57.0467 C37.3642,57.3267 37.6582,57.4937 38.1682,57.8257 C38.5912,56.0747 38.7832,54.6167 38.9242,51.9447 L37.4412,51.7007 C37.3642,53.8507 37.1462,55.3217 36.7372,56.5477 L36.7372,52.5067 C37.0322,52.0977 37.1712,51.8937 37.3252,51.6387 C37.5182,51.3437 37.5182,51.3437 37.6322,51.1647 C37.7732,51.1527 37.8362,51.1527 37.8882,51.1527 L39.1162,51.1527 L39.1162,57.3027 C39.1162,58.1327 39.1032,58.4017 39.0382,58.9397 L41.0072,58.9397 C40.9442,58.4787 40.9312,58.1457 40.9312,57.3027 L40.9312,51.1527 L42.0172,51.1527 C42.1332,51.1527 42.1982,51.1527 42.3512,51.1647 L42.3512,51.7137 L40.9942,52.0337 C41.2502,53.1207 41.4932,54.7317 41.6852,56.5337 L43.2062,55.9977 C43.0532,54.8977 42.7602,53.3257 42.5032,52.2637 C42.6442,52.2507 42.7982,52.2507 42.9892,52.2507 L43.3862,52.2507 L43.3862,56.7647 C43.3862,56.9947 43.2962,57.0597 42.9642,57.0597 L42.9642,57.0597 Z" id="Fill-22" fill="#FFBE2E" mask="url(#mask-6)"></path>
            <path d="M33.8218,49.0156 C34.1678,49.6556 34.3588,50.1036 34.5768,50.8056 C35.4458,50.2826 36.4178,49.4246 37.1588,48.5176 C37.4788,48.1206 37.4788,48.1206 37.7728,47.7876 L36.1098,46.8166 C35.6508,47.6216 34.8948,48.3386 33.8218,49.0156" id="Fill-23" fill="#FFBE2E" mask="url(#mask-6)"></path>
            <path d="M52.9009,54.1436 C53.4389,55.3066 54.0399,56.1516 54.9099,56.9956 C55.7399,57.7886 56.5579,58.3636 57.7609,58.9636 C58.1559,58.0936 58.4759,57.5956 59.0389,56.9066 C57.6199,56.3426 56.6099,55.7036 55.7279,54.8216 C54.8709,53.9526 54.2059,52.8786 53.8609,51.8046 L56.7249,51.8046 C57.5049,51.8046 57.9399,51.8176 58.5149,51.8816 L58.5149,49.7326 C58.0039,49.7846 57.5179,49.8086 56.7129,49.8086 L53.7969,49.8086 L53.7969,49.3746 C53.8219,47.7116 53.8219,47.7116 53.8979,47.2126 L51.5589,47.2126 C51.6239,47.5966 51.6489,47.9166 51.6489,48.5816 C51.6489,49.0026 51.6489,49.2976 51.6359,49.8086 L48.8859,49.8086 C48.0549,49.8086 47.5699,49.7846 47.0959,49.7326 L47.0959,51.8816 C47.6089,51.8176 47.9409,51.8046 48.8989,51.8046 L51.4699,51.8046 C51.2919,53.0446 50.8549,53.9906 50.0639,54.8606 C49.2069,55.8196 48.2219,56.4576 46.6999,57.0466 C47.2499,57.7116 47.5699,58.2096 47.9409,58.9636 C48.5929,58.6696 48.8859,58.5176 49.2699,58.2876 C50.0489,57.8136 50.7919,57.1866 51.4429,56.4576 C52.0709,55.7546 52.5309,55.0266 52.9009,54.1436" id="Fill-24" fill="#FFBE2E" mask="url(#mask-6)"></path>
            <path d="M59.8853,51.0244 L61.7273,51.0244 L61.7273,49.4894 L69.5773,49.4894 L69.5773,51.0244 L71.4183,51.0244 C71.3673,50.6914 71.3543,50.4734 71.3543,50.0774 L71.3543,49.2334 C71.3543,48.7604 71.3673,48.4664 71.4063,48.0574 C70.9843,48.0954 70.7153,48.1084 70.2173,48.1084 L69.5903,48.1084 C69.7173,47.9044 69.7173,47.9044 69.9993,47.4304 L68.1193,46.9574 C67.9283,47.4434 67.8133,47.6734 67.5443,48.1084 L66.5853,48.1084 L66.5853,47.8524 C66.5853,47.4954 66.5973,47.1874 66.6373,46.9454 L64.5643,46.9454 C64.6033,47.2124 64.6153,47.4824 64.6153,47.8394 L64.6153,48.1084 L63.6183,48.1084 C63.3243,47.4824 63.2863,47.4054 63.0433,47.0214 L61.1763,47.4434 C61.4193,47.7514 61.4963,47.8524 61.6503,48.1084 L61.1133,48.1084 C60.5883,48.1084 60.3213,48.0954 59.8973,48.0574 C59.9373,48.4924 59.9483,48.7354 59.9483,49.2094 L59.9483,50.0644 C59.9483,50.4614 59.9373,50.6664 59.8853,51.0244" id="Fill-25" fill="#FFBE2E" mask="url(#mask-6)"></path>
            <path d="M63.914,51.19 L67.366,51.19 L67.366,50.805 L63.914,50.805 L63.914,51.19 Z M69.194,49.772 C68.747,49.797 68.375,49.809 67.876,49.809 L63.44,49.809 C62.865,49.809 62.519,49.797 62.097,49.772 C62.124,50.027 62.136,50.308 62.136,50.666 L62.136,51.344 C62.136,51.663 62.124,51.919 62.097,52.227 C62.533,52.2 62.865,52.188 63.351,52.188 L67.966,52.188 C68.529,52.188 68.797,52.2 69.194,52.227 C69.156,51.882 69.156,51.676 69.156,51.318 L69.156,50.666 C69.156,50.32 69.168,50.064 69.194,49.772 L69.194,49.772 Z" id="Fill-26" fill="#FFBE2E" mask="url(#mask-6)"></path>
            <path d="M62.928,56.075 L68.311,56.075 L68.311,55.755 L62.928,55.755 L62.928,56.075 Z M62.928,54.924 L68.311,54.924 L68.311,54.605 L62.928,54.605 L62.928,54.924 Z M62.928,53.773 L68.311,53.773 L68.311,53.454 L62.928,53.454 L62.928,53.773 Z M68.606,58.746 C69.449,58.964 69.898,59.041 70.919,59.118 C71.137,58.542 71.341,58.133 71.662,57.609 C70.101,57.533 69.219,57.392 68.363,57.085 L69.065,57.085 C69.565,57.085 69.833,57.085 70.243,57.109 C70.217,56.829 70.204,56.573 70.204,55.869 L70.204,53.685 C70.204,53.172 70.217,52.866 70.243,52.457 C69.871,52.481 69.513,52.494 68.849,52.494 L62.391,52.494 C61.625,52.494 61.382,52.481 60.998,52.457 C61.036,52.852 61.048,53.185 61.048,53.685 L61.048,55.869 C61.048,56.395 61.036,56.728 60.998,57.109 C61.497,57.085 61.764,57.085 62.367,57.085 L62.903,57.085 C62.02,57.34 61.075,57.456 59.502,57.506 C59.86,58.031 60.09,58.44 60.333,59.041 C62.263,58.823 63.312,58.567 64.846,57.903 L64.003,57.085 L67.123,57.085 L66.381,57.903 C67.301,58.352 67.749,58.518 68.606,58.746 L68.606,58.746 Z" id="Fill-27" fill="#FFBE2E" mask="url(#mask-6)"></path>
            <polygon id="Fill-28" fill="#FFBE2E" mask="url(#mask-6)" points="37.4927 66.6026 36.1677 63.9186 34.8437 66.6026 31.8827 67.0326 34.0247 69.1216 33.5187 72.0706 36.1677 70.6776 38.8167 72.0706 38.3107 69.1216 40.4537 67.0326"></polygon>
            <polygon id="Fill-29" fill="#FFBE2E" mask="url(#mask-6)" points="47.7437 66.6026 46.4187 63.9186 45.0947 66.6026 42.1337 67.0326 44.2757 69.1216 43.7697 72.0706 46.4187 70.6776 49.0677 72.0706 48.5617 69.1216 50.7047 67.0326"></polygon>
            <polygon id="Fill-30" fill="#FFBE2E" mask="url(#mask-6)" points="57.9946 66.6026 56.6696 63.9186 55.3456 66.6026 52.3846 67.0326 54.5266 69.1216 54.0206 72.0706 56.6696 70.6776 59.3186 72.0706 58.8126 69.1216 60.9556 67.0326"></polygon>
            <path d="M16.4214,96.8809 C16.0614,96.4989 15.8114,96.1799 15.5214,95.6889 C15.1804,95.1279 15.0404,94.7969 14.8004,94.0749 L17.9244,94.0749 C17.6844,94.8769 17.5644,95.1669 17.2744,95.6889 C17.0244,96.1399 16.7724,96.4889 16.4214,96.8809 M18.5864,96.0599 C18.9254,95.4189 19.0964,94.9869 19.3364,94.0749 L19.7274,94.0749 C20.2574,94.0749 20.6174,94.0959 20.9994,94.1369 L20.9994,92.8049 C20.6084,92.8549 20.2284,92.8739 19.6764,92.8739 L17.0144,92.8739 L17.0144,92.1829 C17.0144,91.9229 17.0334,91.6819 17.0734,91.4729 L15.5804,91.4729 C15.6214,91.6819 15.6414,91.9229 15.6414,92.1929 L15.6414,92.8739 L13.1174,92.8739 C12.5774,92.8739 12.1954,92.8549 11.8054,92.8049 L11.8054,94.1369 C12.1764,94.0959 12.5974,94.0749 13.0764,94.0749 L13.4274,94.0749 C13.9394,95.6589 14.5004,96.6599 15.4914,97.7409 C14.5004,98.5019 13.4484,98.9629 11.6554,99.4339 C11.9964,99.8749 12.1954,100.2159 12.3864,100.7159 C14.2094,100.1149 15.3304,99.5439 16.4424,98.6429 C17.5734,99.5649 18.7164,100.1549 20.4284,100.7059 C20.6584,100.1149 20.8384,99.7949 21.1984,99.3439 C19.6074,98.9929 18.4954,98.5329 17.4034,97.7409 C17.8854,97.1999 18.2554,96.6899 18.5864,96.0599" id="Fill-31" fill="#FFBE2E" mask="url(#mask-6)"></path>
            <path d="M23.589,99.003 L25.24,99.003 L25.24,97.832 L23.589,97.832 L23.589,99.003 Z M26.502,97.342 C26.502,96.95 26.512,96.83 26.532,96.65 C26.392,96.67 26.232,96.68 25.801,96.68 L23.106,96.68 C22.737,96.68 22.537,96.67 22.295,96.65 C22.326,96.869 22.335,97.08 22.335,97.462 L22.335,99.755 C22.335,100.165 22.326,100.405 22.286,100.716 L23.588,100.716 L23.588,100.155 L25.23,100.155 L25.23,100.706 L26.542,100.706 C26.512,100.496 26.502,100.295 26.502,99.966 L26.502,97.342 Z" id="Fill-32" fill="#FFBE2E" mask="url(#mask-6)"></path>
            <path d="M31.1489,92.4639 L30.5789,91.6429 C30.3579,91.6819 30.1779,91.6929 29.7769,91.6929 L27.9739,91.6929 C27.6429,91.6929 27.4229,91.6819 27.1539,91.6519 C27.1729,91.9429 27.1829,92.1519 27.1829,92.4539 L27.1829,99.6039 C27.1829,100.0049 27.1639,100.3959 27.1319,100.7559 L28.5049,100.7559 C28.4639,100.4659 28.4449,100.1149 28.4449,99.5649 L28.4449,92.8939 L29.5969,92.8939 C29.3769,93.7559 29.1059,94.4559 28.6349,95.3879 C29.1459,95.9789 29.3669,96.3189 29.5669,96.8099 C29.6969,97.1309 29.7869,97.5309 29.7869,97.8129 C29.7869,98.1119 29.6169,98.2119 29.1269,98.2119 C28.9659,98.2119 28.8049,98.2019 28.5959,98.1729 C28.7949,98.5729 28.8459,98.8229 28.8659,99.4539 C29.0769,99.4739 29.1869,99.4739 29.2759,99.4739 C29.7469,99.4739 30.0969,99.4339 30.3479,99.3339 C30.8289,99.1539 31.0999,98.6729 31.0999,98.0019 C31.0999,97.5819 31.0089,97.0999 30.8379,96.6899 C30.6589,96.2189 30.4589,95.8999 29.9579,95.2679 C30.3479,94.4659 30.6989,93.6359 30.9679,92.8939 C31.0399,92.6939 31.0789,92.6039 31.1489,92.4639" id="Fill-33" fill="#FFBE2E" mask="url(#mask-6)"></path>
            <path d="M24.7505,94.7871 L24.1285,94.7871 C24.0375,94.1561 23.9885,93.8951 23.8575,93.4651 L24.9905,93.4651 C24.9305,93.9761 24.8805,94.2961 24.7505,94.7871 L24.7505,94.7871 Z M25.9315,94.7871 C26.0705,94.3461 26.1315,94.0261 26.2125,93.4651 C26.5315,93.4651 26.6735,93.4751 26.8435,93.5061 L26.8435,92.2631 C26.5925,92.2931 26.3925,92.3031 25.9505,92.3031 L25.1495,92.3031 L25.1495,92.0721 C25.1495,91.8021 25.1705,91.6121 25.1995,91.4121 L23.7975,91.4121 C23.8285,91.6121 23.8485,91.8231 23.8485,92.0821 L23.8485,92.3031 L22.9165,92.3031 C22.4165,92.3031 22.1955,92.2931 21.9655,92.2531 L21.9655,93.5061 C22.1555,93.4841 22.2855,93.4751 22.6065,93.4651 C22.7275,93.8761 22.8375,94.4061 22.8665,94.7871 L22.8065,94.7871 C22.2755,94.7871 22.0455,94.7771 21.7755,94.7371 L21.7755,96.0391 C22.0655,95.9981 22.2955,95.9881 22.7965,95.9881 L26.1515,95.9881 C26.4525,95.9881 26.7125,95.9981 26.9235,96.0291 L26.9235,94.7471 C26.7325,94.7771 26.5125,94.7871 26.0925,94.7871 L25.9315,94.7871 Z" id="Fill-34" fill="#FFBE2E" mask="url(#mask-6)"></path>
            <path d="M36.0708,96.6192 C35.4108,96.1402 35.3498,96.0692 34.7098,95.2082 L35.1308,95.2082 C35.4398,95.2082 35.6908,95.2182 35.9108,95.2482 L35.9108,93.9962 C35.6908,94.0362 35.5088,94.0462 35.1498,94.0462 L34.6498,94.0462 L34.6498,92.9032 C35.1598,92.7732 35.6708,92.6132 35.9308,92.4932 C36.0308,92.4542 36.0308,92.4542 36.0708,92.4322 L35.3498,91.3822 C34.7488,91.7532 33.5168,92.0532 31.8838,92.2142 C32.1148,92.6532 32.1748,92.8142 32.3048,93.3252 C32.9068,93.2542 33.1278,93.2152 33.4068,93.1652 L33.4068,94.0462 L32.8158,94.0462 C32.4358,94.0462 32.1958,94.0362 31.9158,93.9962 L31.9158,95.2582 C32.1958,95.2272 32.4458,95.2082 32.7968,95.2082 L33.2578,95.2082 C32.9578,96.1302 32.3858,97.0702 31.7148,97.7412 C31.9448,98.1022 32.0858,98.3932 32.3258,99.0222 C32.8568,98.3932 33.1568,97.8512 33.4468,97.0302 C33.4178,97.6612 33.4068,97.9012 33.4068,98.0922 L33.4068,99.4932 C33.4068,100.0452 33.3868,100.3762 33.3458,100.7562 L34.7098,100.7562 C34.6598,100.3762 34.6498,100.0962 34.6498,99.4932 L34.6498,97.7412 C34.6398,97.2202 34.6188,96.8592 34.6088,96.6602 C35.0008,97.3102 35.0898,97.4312 35.4698,97.8612 C35.7108,97.2312 35.8108,97.0302 36.0708,96.6192" id="Fill-35" fill="#FFBE2E" mask="url(#mask-6)"></path>
            <path d="M36.9429,91.9629 L36.1619,92.9029 C36.9729,93.4749 37.4039,93.8569 38.0349,94.5359 L38.8459,93.4959 C38.2949,92.9249 37.8539,92.5739 36.9429,91.9629" id="Fill-36" fill="#FFBE2E" mask="url(#mask-6)"></path>
            <path d="M35.811,95.3975 C36.573,95.9385 36.943,96.2505 37.684,97.0305 L38.445,95.9985 C37.814,95.3775 37.414,95.0565 36.582,94.4655 L35.811,95.3975 Z" id="Fill-37" fill="#FFBE2E" mask="url(#mask-6)"></path>
            <path d="M41.1294,97.9824 L41.0494,96.6284 C40.7374,96.7394 40.6984,96.7494 40.1564,96.8804 L40.1564,92.6534 C40.1564,92.0434 40.1664,91.8124 40.2174,91.4514 L38.7954,91.4514 C38.8464,91.7724 38.8564,92.0524 38.8564,92.6634 L38.8564,97.1604 L36.6614,97.6314 C36.2414,97.7114 35.9504,97.7524 35.7104,97.7524 L35.8304,99.1234 C36.0704,99.0534 36.3714,98.9734 36.8134,98.8824 L38.8564,98.4324 L38.8564,99.5444 C38.8564,100.1844 38.8464,100.4364 38.7954,100.7754 L40.2174,100.7754 C40.1664,100.4464 40.1564,100.1654 40.1564,99.5534 L40.1564,98.1514 C40.6274,98.0524 40.8674,98.0114 41.1294,97.9824" id="Fill-38" fill="#FFBE2E" mask="url(#mask-6)"></path>
            <path d="M47.4331,96.8594 C48.1641,96.3594 48.7141,95.9284 49.2161,95.4674 C49.3271,95.3684 49.3661,95.3284 49.4761,95.2374 L48.8341,94.5264 C48.6451,94.5564 48.4541,94.5664 48.0641,94.5664 L44.9001,94.5664 C44.4491,94.5664 44.1581,94.5564 43.8581,94.5264 L43.8581,95.7084 C44.1891,95.6784 44.4391,95.6694 44.8901,95.6694 L47.3031,95.6694 C46.9721,95.9594 46.7121,96.1394 46.3811,96.3194 L45.8911,96.3194 C45.9111,96.4694 45.9201,96.6384 45.9201,96.8594 L43.3171,96.8594 C42.8261,96.8594 42.4061,96.8394 42.0361,96.7904 L42.0361,98.1024 C42.3551,98.0624 42.7961,98.0434 43.3271,98.0434 L45.9201,98.0434 L45.9201,99.2744 C45.9201,99.4544 45.8501,99.4834 45.4301,99.4834 C45.1301,99.4834 44.7291,99.4544 44.1991,99.4044 C44.3981,99.8554 44.4791,100.1054 44.5791,100.6674 C45.0301,100.6764 45.3501,100.6864 45.6101,100.6864 C46.9431,100.6864 47.2431,100.4964 47.2431,99.6254 L47.2431,98.0434 L49.6561,98.0434 C50.2071,98.0434 50.6681,98.0624 50.9881,98.1024 L50.9881,96.7904 C50.6681,96.8394 50.1881,96.8594 49.6671,96.8594 L47.4331,96.8594 Z" id="Fill-39" fill="#FFBE2E" mask="url(#mask-6)"></path>
            <path d="M48.7241,91.4512 C48.5441,91.9522 48.3141,92.4232 47.9941,92.8932 L47.2741,92.8932 C47.0821,92.3222 46.9831,92.0922 46.6321,91.4022 L45.3601,91.6812 C45.6101,92.1132 45.7901,92.5042 45.9201,92.8932 L45.0491,92.8932 C44.7581,92.3222 44.5181,91.9422 44.1991,91.5122 L42.9671,91.8122 C43.3171,92.2732 43.4471,92.4932 43.6571,92.8932 L43.2871,92.8932 C42.6361,92.8932 42.4551,92.8842 42.0751,92.8542 C42.1051,93.1042 42.1151,93.3352 42.1151,93.6852 L42.1151,94.6962 C42.1151,95.0372 42.1051,95.2772 42.0651,95.4982 L43.3681,95.4982 L43.3681,94.0062 L49.6461,94.0062 L49.6461,95.4982 L50.9381,95.4982 C50.9091,95.2482 50.8891,95.0072 50.8891,94.7062 L50.8891,93.6852 C50.8891,93.3052 50.8991,93.1042 50.9281,92.8542 C50.5981,92.8842 50.3371,92.8932 49.6871,92.8932 L49.3661,92.8932 C49.5471,92.6242 49.8571,92.0922 50.0171,91.7632 L48.7241,91.4512 Z" id="Fill-40" fill="#FFBE2E" mask="url(#mask-6)"></path>
            <path d="M57.1226,95.0469 L59.5456,95.0469 C60.1266,95.0469 60.4376,95.0569 60.8676,95.1079 L60.8676,93.6549 C60.4976,93.6949 60.1266,93.7149 59.5356,93.7149 L57.0536,93.7149 C57.0626,93.3739 57.0726,93.2949 57.0726,93.0239 C57.0826,92.0529 57.0826,91.9729 57.1426,91.6029 L55.5796,91.6029 C55.6296,91.8829 55.6506,92.1829 55.6506,92.6729 C55.6506,93.0139 55.6406,93.2849 55.6296,93.7149 L53.3156,93.7149 C52.6956,93.7149 52.3356,93.6949 51.9846,93.6549 L51.9846,95.1079 C52.3456,95.0569 52.6366,95.0469 53.3156,95.0469 L55.5106,95.0469 C55.3006,96.5499 54.6596,97.6209 53.4066,98.5239 C52.8866,98.9019 52.4656,99.1229 51.7046,99.4239 C52.0846,99.8649 52.3146,100.2159 52.5356,100.6959 C53.6176,100.2159 54.3386,99.7239 55.0996,98.9339 C55.7596,98.2419 56.2006,97.5409 56.5016,96.6799 C56.8326,97.4619 57.2326,98.1029 57.8036,98.7429 C58.5246,99.5649 59.2666,100.1249 60.3876,100.6959 C60.6786,100.0859 60.8676,99.7839 61.2596,99.3239 C60.0876,98.8529 59.3266,98.3529 58.5946,97.5609 C57.8836,96.7999 57.3826,95.9489 57.1226,95.0469" id="Fill-41" fill="#FFBE2E" mask="url(#mask-6)"></path>
            <path d="M63.797,99.083 L66.131,99.083 L66.131,97.762 L63.797,97.762 L63.797,99.083 Z M63.797,96.579 L68.954,96.579 L68.954,95.368 L63.797,95.368 L63.797,96.579 Z M63.797,94.176 L66.119,94.176 L66.119,92.954 L63.797,92.954 L63.797,94.176 Z M67.433,99.083 L67.433,97.762 L69.336,97.762 C69.797,97.762 70.037,97.772 70.296,97.801 C70.267,97.541 70.256,97.352 70.256,96.881 L70.256,95.018 C70.256,94.566 70.256,94.406 70.296,94.137 C70.047,94.166 69.827,94.176 69.336,94.176 L67.423,94.176 L67.423,92.954 L69.636,92.954 C70.208,92.954 70.507,92.964 70.808,93.004 L70.808,91.682 C70.498,91.723 70.187,91.742 69.596,91.742 L63.527,91.742 C62.987,91.742 62.747,91.732 62.435,91.703 C62.465,92.013 62.475,92.313 62.475,92.773 L62.475,99.544 C62.475,100.096 62.456,100.386 62.416,100.736 L63.797,100.736 L63.797,100.305 L69.756,100.305 C70.296,100.305 70.618,100.326 70.938,100.365 L70.938,99.034 C70.717,99.064 70.357,99.083 69.747,99.083 L67.433,99.083 Z" id="Fill-42" fill="#FFBE2E" mask="url(#mask-6)"></path>
            <path d="M72.0845,94.5469 L73.3155,94.5469 L73.3155,93.3449 L79.7165,93.3449 L79.7165,94.5469 L80.9385,94.5469 C80.9065,94.3059 80.8975,94.1369 80.8975,93.8569 L80.8975,93.2759 C80.8975,92.9029 80.9065,92.6629 80.9385,92.3539 C80.6565,92.3829 80.3765,92.3939 79.9865,92.3939 L79.3955,92.3939 C79.5165,92.2339 79.5165,92.2339 79.7955,91.7919 L78.5845,91.4219 C78.3935,91.8329 78.2725,92.0429 78.0335,92.3939 L77.1215,92.3939 L77.1215,92.1039 C77.1215,91.8329 77.1325,91.5829 77.1615,91.3919 L75.7705,91.3919 C75.8005,91.6119 75.8195,91.8229 75.8195,92.1039 L75.8195,92.3939 L74.9195,92.3939 C74.6885,91.9729 74.5685,91.7729 74.3575,91.4829 L73.1465,91.8129 C73.3665,92.0629 73.4565,92.1729 73.5965,92.3939 L73.0755,92.3939 C72.6555,92.3939 72.4255,92.3829 72.0945,92.3539 C72.1245,92.6849 72.1345,92.8739 72.1345,93.2349 L72.1345,93.8349 C72.1345,94.1069 72.1245,94.2759 72.0845,94.5469" id="Fill-43" fill="#FFBE2E" mask="url(#mask-6)"></path>
            <path d="M74.248,98.584 L78.766,98.584 L78.766,98.272 L74.248,98.272 L74.248,98.584 Z M74.248,97.651 L78.766,97.651 L78.766,97.361 L74.248,97.361 L74.248,97.651 Z M74.248,96.739 L78.766,96.739 L78.766,96.459 L74.248,96.459 L74.248,96.739 Z M79.075,99.314 C79.466,99.314 79.697,99.324 80.036,99.334 C80.006,99.123 79.997,98.902 79.997,98.333 L79.997,96.7 C79.997,96.27 80.006,96.039 80.036,95.719 C79.746,95.738 79.466,95.748 78.924,95.748 L74.077,95.748 C73.467,95.748 73.276,95.738 72.975,95.719 C73.006,96.02 73.016,96.3 73.016,96.7 L73.016,98.333 C73.016,98.763 73.006,99.064 72.975,99.334 C73.376,99.314 73.586,99.314 74.047,99.314 L74.458,99.314 C73.817,99.544 72.965,99.664 71.764,99.714 C72.053,100.096 72.195,100.346 72.384,100.786 C73.868,100.596 74.608,100.396 75.77,99.875 L75.15,99.314 L77.733,99.314 L77.181,99.885 C77.863,100.226 78.194,100.355 78.844,100.547 C79.496,100.727 79.836,100.786 80.627,100.876 C80.777,100.476 80.938,100.175 81.168,99.824 C79.916,99.745 79.246,99.604 78.525,99.314 L79.075,99.314 Z" id="Fill-44" fill="#FFBE2E" mask="url(#mask-6)"></path>
            <path d="M74.919,94.737 L78.103,94.737 L78.103,94.355 L74.919,94.355 L74.919,94.737 Z M79.325,93.595 C78.984,93.616 78.724,93.626 78.324,93.626 L74.718,93.626 C74.278,93.626 74.047,93.616 73.707,93.595 C73.726,93.775 73.736,93.967 73.736,94.257 L73.736,94.838 C73.736,95.098 73.726,95.297 73.707,95.498 C74.038,95.479 74.307,95.468 74.648,95.468 L78.383,95.468 C78.825,95.468 79.035,95.479 79.315,95.498 C79.295,95.218 79.295,95.098 79.295,94.816 L79.295,94.267 C79.295,94.006 79.305,93.806 79.325,93.595 L79.325,93.595 Z" id="Fill-45" fill="#FFBE2E" mask="url(#mask-6)"></path>
            <polygon id="Fill-46" fill="#FFBE2E" mask="url(#mask-6)" points="50.7964 7.128 52.5474 1 48.8704 4.677 46.4184 1 43.9674 4.677 40.2904 1 42.0414 7.128"></polygon>
            <polygon id="Fill-47" fill="#FFBE2E" mask="url(#mask-6)" points="42.7417 9.5801 50.0957 9.5801 50.4457 8.3541 42.3917 8.3541"></polygon>
        </g>
    </g>
</svg>