<?xml version="1.0" encoding="UTF-8"?>
<svg width="93px" height="101px" viewBox="0 0 93 101" version="1.1" xmlns="http://www.w3.org/2000/svg" xmlns:xlink="http://www.w3.org/1999/xlink">
    <!-- Generator: Sketch 63.1 (92452) - https://sketch.com -->
    <title>top_r/img_ authority02</title>
    <desc>Created with Sketch.</desc>
    <defs>
        <polygon id="path-1" points="0.0002 0.124 42.4332 0.124 42.4332 87.6809058 0.0002 87.6809058"></polygon>
        <polygon id="path-3" points="0.4055 0.124 42.8375 0.124 42.8375 87.6807058 0.4055 87.6807058"></polygon>
        <polygon id="path-5" points="0 100.876 92.838 100.876 92.838 1 0 1"></polygon>
    </defs>
    <g id="top_r/img_-authority02" stroke="none" stroke-width="1" fill="none" fill-rule="evenodd">
        <g id="Group-38">
            <g id="Group-3" transform="translate(0.000000, 0.876000)">
                <mask id="mask-2" fill="white">
                    <use xlink:href="#path-1"></use>
                </mask>
                <g id="Clip-2"></g>
                <path d="M42.3642,83.6758 L42.4332,82.9998 C42.4332,82.9998 40.6232,82.8768 37.5822,82.1898 C37.6632,81.1998 37.6562,79.2578 36.7442,77.0668 C35.6902,74.5308 32.5132,73.4388 32.5132,73.4388 C32.5132,73.4388 31.7452,77.1008 33.2412,79.5128 C33.7232,80.2898 34.6392,81.0508 35.4982,81.6548 C34.1272,81.2598 32.5992,80.7368 30.9632,80.0368 C31.2112,79.1038 31.5452,77.2168 31.0342,74.9288 C30.4482,72.3028 27.5662,70.7078 27.5662,70.7078 C27.5662,70.7078 26.2032,74.1128 27.2372,76.6948 C27.5762,77.5368 28.3442,78.4428 29.0812,79.1768 C28.1882,78.7408 27.2722,78.2578 26.3362,77.7108 C25.8212,77.4318 25.3052,77.1268 24.7892,76.8028 C25.1842,75.9648 25.8562,74.1758 25.7512,71.8298 C25.6342,69.1968 23.1242,67.1658 23.1242,67.1658 C23.1242,67.1658 21.2272,70.2198 21.7872,72.8868 C21.9822,73.8218 22.6462,74.9128 23.2712,75.7798 C21.9282,74.8178 20.5992,73.7078 19.3132,72.4688 C19.8352,71.7358 20.7992,70.1148 21.0962,67.8168 C21.4322,65.2558 19.3552,62.8688 19.3552,62.8688 C19.3552,62.8688 17.0072,65.4918 17.0932,68.1608 C17.1222,69.0828 17.5632,70.2218 18.0082,71.1548 C16.8622,69.9418 15.7632,68.6198 14.7312,67.2108 C15.3712,66.5718 16.5402,65.1858 17.2032,63.0668 C17.9632,60.6518 16.3642,57.9948 16.3642,57.9948 C16.3642,57.9948 13.6482,60.1268 13.2792,62.7188 C13.1582,63.5678 13.3592,64.6658 13.6132,65.6128 C12.7142,64.2558 11.8802,62.8268 11.1272,61.3368 C11.8432,60.8388 13.2312,59.6968 14.2472,57.7368 C15.3902,55.5348 14.3012,52.6988 14.3012,52.6988 C14.3012,52.6988 11.3172,54.2948 10.5182,56.7348 C10.2452,57.5728 10.2662,58.7438 10.3632,59.7318 C9.6722,58.1978 9.0732,56.6078 8.5782,54.9678 C9.3372,54.6258 10.9102,53.7588 12.2552,52.0008 C13.7322,50.0708 13.1652,47.1488 13.1652,47.1488 C13.1652,47.1488 10.0132,48.1808 8.8292,50.3998 C8.3922,51.2108 8.2202,52.4448 8.1532,53.4518 C7.7182,51.7538 7.3992,50.0068 7.2182,48.2238 C7.9942,48.0298 9.6832,47.4658 11.3012,45.9788 C13.0572,44.3648 13.0052,41.4498 13.0052,41.4498 C13.0052,41.4498 9.7892,41.9098 8.2692,43.8498 C7.7042,44.5658 7.3252,45.7428 7.0902,46.7078 C6.9172,44.8528 6.9002,43.0068 7.0192,41.1858 C7.7692,41.1398 9.5422,40.9028 11.4052,39.7098 C13.3742,38.4528 13.8212,35.6288 13.8212,35.6288 C13.8212,35.6288 10.6372,35.5268 8.8402,37.1368 C8.1192,37.7818 7.5152,38.9818 7.1242,39.9098 C7.3212,37.9518 7.6692,36.0288 8.1512,34.1608 C8.8912,34.2428 10.6342,34.3068 12.6222,33.4798 C14.7362,32.6018 15.6472,29.9508 15.6472,29.9508 C15.6472,29.9508 12.5922,29.3108 10.5832,30.5618 C9.8052,31.0448 9.0442,32.0468 8.5102,32.8638 C9.0572,30.9988 9.7332,29.1958 10.5122,27.4728 C11.2152,27.6778 12.8842,28.0378 14.9412,27.5768 C17.1332,27.0898 18.4622,24.6878 18.4622,24.6878 C18.4622,24.6878 15.6242,23.5498 13.4692,24.4128 C12.6332,24.7488 11.7202,25.5968 11.0652,26.2968 C11.9322,24.5268 12.9052,22.8538 13.9582,21.2978 C14.5462,21.5978 16.1362,22.2868 18.2902,22.1888 C20.4852,22.0908 22.1772,19.9978 22.1772,19.9978 C22.1772,19.9978 19.6332,18.4168 17.4082,18.8858 C16.4492,19.0868 15.2952,19.8778 14.5332,20.4718 C15.7422,18.7738 17.0422,17.2298 18.3932,15.8728 C18.8462,16.2278 20.3012,17.2368 22.4892,17.5218 C24.6262,17.8008 26.6182,16.0698 26.6182,16.0698 C26.6182,16.0698 24.4282,14.1108 22.2012,14.1838 C21.1462,14.2168 19.7452,14.8958 18.9252,15.3488 C19.6722,14.6298 20.4342,13.9708 21.2022,13.3728 C22.0622,12.6548 22.9132,12.0068 23.7502,11.4138 C24.1402,11.8458 25.3692,13.0498 27.4132,13.6908 C29.4262,14.3228 31.6422,12.9908 31.6422,12.9908 C31.6422,12.9908 29.8622,10.7288 27.7032,10.4188 C26.6942,10.2758 25.2552,10.6778 24.3812,10.9738 C26.2682,9.6848 28.0562,8.6908 29.6482,7.9258 C29.8912,8.3278 30.8722,9.7948 32.8362,10.8118 C34.6732,11.7668 37.0362,10.8578 37.0362,10.8578 C37.0362,10.8578 35.7042,8.3708 33.6722,7.7038 C32.6112,7.3588 30.9132,7.5778 30.0802,7.7218 C31.5002,7.0608 32.7492,6.5828 33.7522,6.2368 C34.1842,6.4478 35.6172,7.0688 36.9142,6.6218 C38.8492,5.9568 39.8072,4.6528 39.8072,4.6528 C39.8072,4.6528 37.8092,3.8868 36.6212,4.0878 C35.1342,4.3428 33.9192,5.7898 33.6692,6.1038 C32.8422,6.3628 31.8552,6.7088 30.7442,7.1688 C31.4612,6.6778 32.7742,5.6898 33.2812,4.7298 C34.2832,2.8368 33.5152,0.1238 33.5152,0.1238 C33.5152,0.1238 31.1812,1.1108 30.5212,3.0718 C29.8052,5.1978 30.1372,6.9548 30.2362,7.3828 C28.6202,8.0818 26.7692,9.0168 24.7962,10.2708 C25.4432,9.6188 26.4672,8.4838 26.7832,7.4978 C27.4552,5.4198 26.2022,2.8298 26.2022,2.8298 C26.2022,2.8298 24.0322,4.2348 23.7162,6.3218 C23.3812,8.5298 23.9862,10.2078 24.1792,10.6698 C23.1222,11.3678 22.0352,12.1538 20.9322,13.0438 C20.4422,13.4128 19.9542,13.8108 19.4682,14.2298 C19.9892,13.4468 20.6342,12.3218 20.7602,11.4078 C21.0672,9.2018 19.3492,6.8198 19.3492,6.8198 C19.3492,6.8198 17.4172,8.6168 17.4682,10.7708 C17.5202,12.9068 18.3172,14.4278 18.6452,14.9658 C17.2892,16.2288 15.9692,17.6798 14.7302,19.2838 C15.0992,18.4148 15.5032,17.2468 15.4702,16.3528 C15.3852,14.0808 13.2352,11.9908 13.2352,11.9908 C13.2352,11.9908 11.6132,14.1398 12.0492,16.2958 C12.4772,18.4258 13.5442,19.8118 13.9712,20.2968 C12.8382,21.8628 11.7822,23.5568 10.8332,25.3608 C11.0562,24.4148 11.2722,23.1268 11.0752,22.2118 C10.5872,19.9448 8.0582,18.2258 8.0582,18.2258 C8.0582,18.2258 6.8082,20.6728 7.6272,22.7598 C8.4412,24.8408 9.7712,26.0448 10.2792,26.4508 C9.4532,28.1388 8.7192,29.9078 8.1102,31.7438 C8.1522,30.7868 8.1162,29.5918 7.7832,28.7748 C6.8922,26.5828 4.0462,25.3028 4.0462,25.3028 C4.0462,25.3028 3.2222,27.9828 4.4162,29.9368 C5.5652,31.8208 7.0552,32.7948 7.6772,33.1418 C7.1752,34.8548 6.7822,36.6198 6.5142,38.4228 C6.3752,37.5268 6.1332,36.5118 5.7092,35.8378 C4.4262,33.7928 1.3392,33.0118 1.3392,33.0118 C1.3392,33.0118 0.9872,35.8508 2.5312,37.6018 C3.9592,39.2228 5.5552,39.9478 6.2882,40.2158 C6.1142,41.9538 6.0602,43.7218 6.1432,45.5068 C5.8442,44.6418 5.4262,43.6888 4.8922,43.0978 C3.2392,41.2698 0.0002,41.0298 0.0002,41.0298 C0.0002,41.0298 0.1482,43.9468 2.0102,45.4338 C3.7482,46.8218 5.4982,47.2618 6.2712,47.3968 C6.3832,49.0838 6.6112,50.7448 6.9482,52.3688 C6.5012,51.5718 5.9262,50.7268 5.3032,50.2418 C3.3172,48.6978 0.0202,49.0328 0.0202,49.0328 C0.0202,49.0328 0.6862,51.9358 2.8222,53.1008 C4.7822,54.1698 6.5902,54.3148 7.4122,54.3178 C7.8432,55.9488 8.3802,57.5398 9.0062,59.0778 C8.4112,58.3508 7.6752,57.5838 6.9512,57.1988 C4.6802,56.0008 1.4272,56.9218 1.4272,56.9218 C1.4272,56.9218 2.6102,59.7198 4.9622,60.5128 C7.1342,61.2428 8.9832,61.0638 9.8022,60.9218 C10.5212,62.4688 11.3312,63.9578 12.2092,65.3768 C11.4742,64.7378 10.5822,64.0818 9.7742,63.8218 C7.2832,63.0178 4.1752,64.5208 4.1752,64.5208 C4.1752,64.5208 5.8612,67.1218 8.3642,67.5008 C10.6782,67.8518 12.5092,67.3418 13.3042,67.0528 C14.2352,68.4088 15.2272,69.6928 16.2662,70.8908 C15.4652,70.4278 14.5512,69.9978 13.7662,69.8898 C11.1202,69.5248 8.2632,71.5848 8.2632,71.5848 C8.2632,71.5848 10.4192,73.9018 13.0012,73.8378 C15.3022,73.7818 17.0062,73.0048 17.7982,72.5618 C18.9022,73.7028 20.0452,74.7508 21.2102,75.6938 C20.3842,75.4068 19.4892,75.1858 18.7522,75.2128 C16.0282,75.3148 13.5212,77.8908 13.5212,77.8908 C13.5212,77.8908 16.0972,79.8358 18.6822,79.3158 C20.9432,78.8598 22.5022,77.8078 23.2352,77.2138 C24.0612,77.7818 24.8862,78.2988 25.7132,78.7538 C26.2352,79.0658 26.7522,79.3588 27.2622,79.6328 C26.3522,79.4808 25.3672,79.4028 24.5972,79.5688 C21.8792,80.1528 19.8172,83.1828 19.8172,83.1828 C19.8172,83.1828 22.7512,84.6828 25.2572,83.7008 C27.4782,82.8298 28.8672,81.4688 29.4882,80.7518 C30.9932,81.4558 32.4222,82.0158 33.7412,82.4598 C32.8112,82.4728 31.8292,82.5708 31.1002,82.8668 C28.4712,83.9358 26.9362,87.3498 26.9362,87.3498 C26.9362,87.3498 30.1492,88.3358 32.4932,86.9048 C34.5612,85.6438 35.7142,84.0408 36.2152,83.2058 C39.9772,84.2028 42.2962,84.3498 42.2962,84.3498 L42.3642,83.6758 Z" id="Fill-1" fill="#FFBE2E" mask="url(#mask-2)"></path>
            </g>
            <g id="Group-6" transform="translate(50.000000, 0.876000)">
                <mask id="mask-4" fill="white">
                    <use xlink:href="#path-3"></use>
                </mask>
                <g id="Clip-5"></g>
                <path d="M40.0175,53.1006 C42.1515,51.9356 42.8185,49.0336 42.8185,49.0336 C42.8185,49.0336 39.5205,48.6986 37.5335,50.2426 C36.9115,50.7266 36.3365,51.5726 35.8895,52.3696 C36.2285,50.7456 36.4555,49.0836 36.5665,47.3966 C37.3395,47.2636 39.0885,46.8226 40.8265,45.4336 C42.6895,43.9466 42.8375,41.0306 42.8375,41.0306 C42.8375,41.0306 39.5985,41.2696 37.9455,43.0976 C37.4115,43.6906 36.9925,44.6416 36.6955,45.5066 C36.7795,43.7226 36.7235,41.9546 36.5485,40.2156 C37.2835,39.9486 38.8785,39.2226 40.3075,37.6016 C41.8505,35.8506 41.4985,33.0116 41.4985,33.0116 C41.4985,33.0116 38.4125,33.7926 37.1275,35.8376 C36.7045,36.5136 36.4625,37.5276 36.3235,38.4236 C36.0555,36.6216 35.6635,34.8546 35.1615,33.1416 C35.7825,32.7946 37.2725,31.8206 38.4205,29.9366 C39.6155,27.9826 38.7925,25.3026 38.7925,25.3026 C38.7925,25.3026 35.9465,26.5826 35.0525,28.7746 C34.7225,29.5916 34.6865,30.7876 34.7275,31.7446 C34.1195,29.9086 33.3855,28.1386 32.5575,26.4516 C33.0665,26.0446 34.3965,24.8406 35.2115,22.7596 C36.0305,20.6726 34.7805,18.2256 34.7805,18.2256 C34.7805,18.2256 32.2525,19.9446 31.7635,22.2116 C31.5675,23.1266 31.7825,24.4156 32.0055,25.3606 C31.0565,23.5586 29.9995,21.8626 28.8675,20.2966 C29.2945,19.8116 30.3605,18.4256 30.7895,16.2956 C31.2235,14.1396 29.6035,11.9916 29.6035,11.9916 C29.6035,11.9916 27.4535,14.0806 27.3685,16.3526 C27.3345,17.2466 27.7395,18.4146 28.1095,19.2846 C26.8675,17.6796 25.5495,16.2286 24.1915,14.9656 C24.5195,14.4276 25.3175,12.9076 25.3695,10.7706 C25.4215,8.6176 23.4905,6.8196 23.4905,6.8196 C23.4905,6.8196 21.7725,9.2026 22.0795,11.4086 C22.2045,12.3226 22.8485,13.4466 23.3695,14.2296 C22.8835,13.8106 22.3955,13.4126 21.9065,13.0436 C20.8025,12.1536 19.7155,11.3686 18.6595,10.6696 C18.8515,10.2076 19.4575,8.5296 19.1235,6.3216 C18.8075,4.2346 16.6365,2.8296 16.6365,2.8296 C16.6365,2.8296 15.3825,5.4196 16.0545,7.4976 C16.3715,8.4836 17.3945,9.6196 18.0435,10.2716 C16.0675,9.0166 14.2195,8.0816 12.6015,7.3826 C12.7015,6.9546 13.0315,5.1986 12.3165,3.0716 C11.6575,1.1106 9.3225,0.1236 9.3225,0.1236 C9.3225,0.1236 8.5565,2.8366 9.5565,4.7296 C10.0615,5.6876 11.3765,6.6756 12.0925,7.1686 C10.9815,6.7086 9.9955,6.3636 9.1685,6.1036 C8.9195,5.7896 7.7045,4.3426 6.2175,4.0876 C5.0295,3.8866 3.0305,4.6526 3.0305,4.6526 C3.0305,4.6526 3.9885,5.9566 5.9245,6.6216 C7.2225,7.0686 8.6545,6.4486 9.0855,6.2366 C10.0895,6.5826 11.3385,7.0606 12.7585,7.7216 C11.9255,7.5786 10.2285,7.3586 9.1645,7.7046 C7.1345,8.3716 5.8015,10.8576 5.8015,10.8576 C5.8015,10.8576 8.1645,11.7666 10.0015,10.8116 C11.9655,9.7946 12.9475,8.3286 13.1895,7.9256 C14.7815,8.6906 16.5705,9.6846 18.4565,10.9736 C17.5825,10.6776 16.1445,10.2756 15.1345,10.4186 C12.9755,10.7286 11.1955,12.9916 11.1955,12.9916 C11.1955,12.9916 13.4115,14.3236 15.4255,13.6906 C17.4695,13.0496 18.6985,11.8456 19.0895,11.4136 C19.9245,12.0066 20.7755,12.6556 21.6365,13.3726 C22.4035,13.9706 23.1655,14.6296 23.9145,15.3486 C23.0945,14.8976 21.6935,14.2166 20.6355,14.1836 C18.4105,14.1106 16.2215,16.0696 16.2215,16.0696 C16.2215,16.0696 18.2115,17.8006 20.3495,17.5216 C22.5375,17.2366 23.9905,16.2276 24.4445,15.8716 C25.7945,17.2296 27.0955,18.7736 28.3045,20.4716 C27.5435,19.8776 26.3905,19.0866 25.4295,18.8856 C23.2055,18.4166 20.6615,19.9976 20.6615,19.9976 C20.6615,19.9976 22.3535,22.0906 24.5485,22.1886 C26.7015,22.2876 28.2925,21.5976 28.8795,21.2976 C29.9325,22.8536 30.9065,24.5286 31.7725,26.2976 C31.1185,25.5966 30.2045,24.7486 29.3665,24.4136 C27.2155,23.5496 24.3755,24.6876 24.3755,24.6876 C24.3755,24.6876 25.7065,27.0896 27.8965,27.5776 C29.9545,28.0386 31.6245,27.6776 32.3255,27.4726 C33.1045,29.1956 33.7815,31.0006 34.3295,32.8656 C33.7945,32.0486 33.0325,31.0446 32.2535,30.5616 C30.2465,29.3106 27.1915,29.9516 27.1915,29.9516 C27.1915,29.9516 28.1025,32.6016 30.2155,33.4796 C32.2045,34.3066 33.9465,34.2436 34.6875,34.1616 C35.1685,36.0286 35.5165,37.9526 35.7135,39.9106 C35.3225,38.9826 34.7185,37.7826 33.9975,37.1366 C32.2025,35.5266 29.0175,35.6286 29.0175,35.6286 C29.0175,35.6286 29.4645,38.4536 31.4325,39.7096 C33.2965,40.9026 35.0705,41.1396 35.8205,41.1856 C35.9385,43.0066 35.9205,44.8526 35.7485,46.7086 C35.5125,45.7436 35.1345,44.5656 34.5705,43.8496 C33.0495,41.9106 29.8325,41.4506 29.8325,41.4506 C29.8325,41.4506 29.7805,44.3656 31.5375,45.9786 C33.1535,47.4656 34.8435,48.0306 35.6205,48.2236 C35.4385,50.0066 35.1205,51.7536 34.6865,53.4526 C34.6195,52.4446 34.4455,51.2106 34.0095,50.3996 C32.8265,48.1806 29.6745,47.1486 29.6745,47.1486 C29.6745,47.1486 29.1055,50.0706 30.5825,52.0006 C31.9275,53.7586 33.5005,54.6256 34.2595,54.9676 C33.7655,56.6076 33.1655,58.1986 32.4735,59.7316 C32.5715,58.7446 32.5945,57.5736 32.3195,56.7346 C31.5195,54.2946 28.5385,52.6996 28.5385,52.6996 C28.5385,52.6996 27.4485,55.5356 28.5905,57.7366 C29.6085,59.6976 30.9955,60.8386 31.7115,61.3366 C30.9595,62.8276 30.1255,64.2556 29.2245,65.6126 C29.4785,64.6656 29.6805,63.5676 29.5585,62.7186 C29.1885,60.1266 26.4745,57.9956 26.4745,57.9956 C26.4745,57.9956 24.8755,60.6516 25.6345,63.0666 C26.2985,65.1856 27.4675,66.5716 28.1075,67.2086 C27.0745,68.6206 25.9765,69.9396 24.8295,71.1536 C25.2765,70.2206 25.7155,69.0826 25.7465,68.1616 C25.8315,65.4926 23.4815,62.8696 23.4815,62.8696 C23.4815,62.8696 21.4075,65.2556 21.7415,67.8166 C22.0405,70.1156 23.0035,71.7356 23.5255,72.4686 C22.2405,73.7076 20.9115,74.8176 19.5665,75.7796 C20.1915,74.9126 20.8565,73.8226 21.0515,72.8866 C21.6105,70.2196 19.7135,67.1656 19.7135,67.1656 C19.7135,67.1656 17.2055,69.1966 17.0875,71.8296 C16.9805,74.1756 17.6545,75.9646 18.0485,76.8026 C17.5325,77.1266 17.0165,77.4316 16.5005,77.7106 C15.5645,78.2576 14.6495,78.7416 13.7565,79.1766 C14.4935,78.4426 15.2625,77.5376 15.6015,76.6946 C16.6345,74.1126 15.2725,70.7076 15.2725,70.7076 C15.2725,70.7076 12.3905,72.3026 11.8045,74.9286 C11.2925,77.2166 11.6265,79.1036 11.8745,80.0376 C10.2385,80.7366 8.7115,81.2596 7.3395,81.6546 C8.1995,81.0506 9.1135,80.2896 9.5945,79.5126 C11.0935,77.1006 10.3245,73.4386 10.3245,73.4386 C10.3245,73.4386 7.1475,74.5316 6.0935,77.0666 C5.1835,79.2576 5.1755,81.2006 5.2565,82.1896 C2.2155,82.8766 0.4055,82.9996 0.4055,82.9996 L0.4735,83.6756 L0.5435,84.3496 C0.5435,84.3496 2.8605,84.2036 6.6225,83.2056 C7.1235,84.0406 8.2765,85.6436 10.3435,86.9046 C12.6875,88.3356 15.9015,87.3496 15.9015,87.3496 C15.9015,87.3496 14.3675,83.9356 11.7385,82.8676 C11.0085,82.5706 10.0275,82.4726 9.0965,82.4596 C10.4155,82.0156 11.8445,81.4556 13.3505,80.7516 C13.9695,81.4686 15.3595,82.8296 17.5805,83.7016 C20.0865,84.6826 23.0215,83.1826 23.0215,83.1826 C23.0215,83.1826 20.9585,80.1526 18.2395,79.5686 C17.4715,79.4026 16.4875,79.4806 15.5735,79.6326 C16.0855,79.3586 16.6025,79.0656 17.1245,78.7536 C17.9495,78.2986 18.7785,77.7826 19.6005,77.2136 C20.3345,77.8056 21.8965,78.8596 24.1555,79.3156 C26.7405,79.8356 29.3165,77.8906 29.3165,77.8906 C29.3165,77.8906 26.8115,75.3146 24.0855,75.2126 C23.3485,75.1856 22.4535,75.4076 21.6275,75.6936 C22.7915,74.7506 23.9355,73.7036 25.0415,72.5616 C25.8315,73.0046 27.5375,73.7826 29.8365,73.8376 C32.4195,73.9016 34.5745,71.5846 34.5745,71.5846 C34.5745,71.5846 31.7175,69.5246 29.0715,69.8896 C28.2865,69.9976 27.3725,70.4276 26.5715,70.8906 C27.6105,69.6926 28.6025,68.4096 29.5345,67.0526 C30.3295,67.3416 32.1585,67.8516 34.4745,67.5006 C36.9775,67.1216 38.6635,64.5206 38.6635,64.5206 C38.6635,64.5206 35.5555,63.0176 33.0645,63.8216 C32.2545,64.0816 31.3635,64.7396 30.6285,65.3766 C31.5065,63.9576 32.3155,62.4686 33.0355,60.9216 C33.8545,61.0636 35.7045,61.2436 37.8745,60.5126 C40.2275,59.7196 41.4115,56.9216 41.4115,56.9216 C41.4115,56.9216 38.1565,56.0006 35.8865,57.1996 C35.1645,57.5836 34.4265,58.3506 33.8315,59.0786 C34.4565,57.5396 34.9955,55.9496 35.4255,54.3176 C36.2475,54.3146 38.0555,54.1696 40.0175,53.1006" id="Fill-4" fill="#FFBE2E" mask="url(#mask-4)"></path>
            </g>
            <path d="M32.3017,21.6104 L31.5607,21.6104 C31.1677,21.6104 30.9817,21.6014 30.7837,21.5774 C31.0667,21.3024 31.2287,21.1164 31.4497,20.8084 L31.9197,20.8084 C32.0897,21.1074 32.1997,21.3304 32.3017,21.6104 L32.3017,21.6104 Z M32.7887,20.8084 L33.2587,20.8084 C33.4377,20.8084 33.5997,20.8174 33.7367,20.8254 C33.6157,20.9374 33.5737,20.9794 33.4287,21.0994 C33.6677,21.2784 33.8467,21.4404 33.9747,21.6104 L32.4217,21.6104 L33.1297,21.3884 C32.9437,21.0554 32.8917,20.9704 32.7887,20.8084 L32.7887,20.8084 Z M34.8277,20.8174 L35.3497,20.8174 C35.5287,21.0994 35.6897,21.3884 35.7827,21.6104 L34.1367,21.6104 C34.4087,21.3634 34.6067,21.1414 34.8277,20.8174 L34.8277,20.8174 Z M36.2277,22.3704 L36.2277,22.9244 L34.3757,22.9244 L34.3667,22.3704 L36.2277,22.3704 Z M31.6287,24.2384 C31.6977,23.9314 31.7057,23.8804 31.7397,23.6674 L33.4887,23.6674 L33.4967,24.2384 L31.6287,24.2384 Z M31.3047,19.3924 C31.1087,20.0324 30.6907,20.5704 29.9657,21.1244 C30.1697,21.3124 30.3487,21.5334 30.5207,21.8154 C30.6387,21.7054 30.6827,21.6714 30.7757,21.5774 L30.7757,22.4054 C31.0057,22.3794 31.2287,22.3704 31.5607,22.3704 L33.4707,22.3704 L33.4807,22.9244 L31.7317,22.9244 C31.3137,22.9244 31.0737,22.9164 30.9207,22.8994 C30.9127,23.0784 30.8617,23.4544 30.7927,23.8294 C30.6827,24.3924 30.5447,24.8444 30.3067,25.4074 L31.3047,25.4234 C31.3637,25.2204 31.3907,25.1434 31.4327,24.9984 L32.9077,24.9984 C32.1917,25.6544 31.1847,26.1584 29.9987,26.4394 C30.2547,26.7464 30.3837,26.9354 30.5537,27.2514 C31.7397,26.8664 32.7627,26.2524 33.5147,25.4674 L33.5307,26.4144 L33.5307,26.6364 C33.5307,26.9684 33.5227,27.1224 33.4807,27.3694 L34.4867,27.3694 C34.4447,27.1054 34.4277,26.8754 34.4187,26.4224 L34.4017,24.9984 L36.6037,24.9984 C36.5427,25.9534 36.5177,25.9974 36.0477,25.9974 C35.8607,25.9974 35.4507,25.9534 35.1267,25.9104 C35.2377,26.2094 35.2887,26.4064 35.3397,26.7464 C35.7067,26.7734 35.8767,26.7814 36.1337,26.7814 C36.7137,26.7814 36.9687,26.7134 37.1307,26.5244 C37.3027,26.3294 37.3617,26.1074 37.4467,25.2794 C37.4647,25.0664 37.4977,24.7934 37.5237,24.4684 C37.5327,24.3754 37.5417,24.3234 37.5587,24.2054 C37.3537,24.2304 37.1497,24.2384 36.8237,24.2384 L34.3927,24.2384 L34.3837,23.6674 L36.3547,23.6674 C36.6977,23.6674 36.9357,23.6754 37.1497,23.6924 C37.1227,23.5134 37.1137,23.3774 37.1137,23.0694 L37.1137,22.1914 C37.1137,21.8834 37.1227,21.7474 37.1497,21.5774 C36.9267,21.6014 36.7737,21.6104 36.3547,21.6104 L35.9457,21.6104 L36.6457,21.4064 C36.5077,21.1844 36.4317,21.0554 36.2697,20.8174 L36.9357,20.8174 C37.3197,20.8174 37.5667,20.8254 37.8307,20.8604 L37.8307,19.9804 C37.5497,20.0244 37.3537,20.0324 36.8927,20.0324 L35.2727,20.0324 C35.4077,19.7504 35.4157,19.7334 35.4847,19.5544 L34.5807,19.3924 C34.4277,19.8954 34.2227,20.2794 33.8897,20.6644 L33.8897,19.9724 C33.6847,20.0154 33.4627,20.0244 33.0537,20.0244 L31.9607,20.0244 C32.0637,19.8534 32.0987,19.7854 32.2167,19.5634 L31.3047,19.3924 Z" id="Fill-7" fill="#FFBE2E"></path>
            <path d="M43.5244,23.2237 C44.3694,23.2237 44.8724,23.7177 44.8724,24.5627 C44.8724,24.8617 44.8024,25.1437 44.6744,25.3387 C44.4354,25.7147 44.0024,25.9367 43.5054,25.9367 C42.6704,25.9367 42.0644,25.3647 42.0644,24.5887 C42.0644,23.8027 42.6874,23.2237 43.5244,23.2237 M43.5834,20.7487 C44.1884,20.7487 44.5034,20.9877 44.7264,21.6107 L45.8784,21.3377 C45.6904,20.8937 45.5624,20.6987 45.3404,20.4677 C44.9314,20.0407 44.3254,19.8187 43.5924,19.8187 C42.6964,19.8187 42.0124,20.1527 41.5104,20.8337 C41.0744,21.4147 40.8104,22.4217 40.8104,23.4707 C40.8104,24.7597 41.1684,25.7837 41.8004,26.3287 C42.2184,26.6867 42.8494,26.8917 43.5324,26.8917 C44.9824,26.8917 46.0064,25.9367 46.0064,24.5887 C46.0064,24.0847 45.9034,23.6407 45.7004,23.3087 C45.3244,22.6687 44.5894,22.2927 43.7194,22.2927 C42.8584,22.2927 42.3554,22.5237 41.8944,23.1467 C41.9364,22.4907 42.0314,22.0797 42.2434,21.6367 C42.5344,21.0477 42.9784,20.7487 43.5834,20.7487" id="Fill-9" fill="#FFBE2E"></path>
            <path d="M49.875,24.1104 C50.985,23.3514 51.07,23.2834 51.31,23.0614 C51.727,22.6694 51.914,22.2594 51.914,21.6954 C51.914,20.5264 50.994,19.8104 49.499,19.8104 C48.647,19.8104 47.974,20.0764 47.546,20.5704 C47.23,20.9374 47.076,21.2864 46.958,21.9344 L48.179,22.0804 C48.237,21.6874 48.297,21.5004 48.442,21.2954 C48.656,20.9634 49.03,20.7924 49.526,20.7924 C50.251,20.7924 50.703,21.1494 50.703,21.7304 C50.703,22.1654 50.465,22.4474 49.68,22.9844 C48.826,23.5554 48.571,23.7534 48.272,24.0164 C47.718,24.5204 47.334,25.0664 47.104,25.6894 C46.991,25.9974 46.933,26.2944 46.881,26.7814 C47.18,26.7464 47.315,26.7384 47.981,26.7384 L50.72,26.7384 C51.266,26.7384 51.608,26.7554 52.009,26.7904 L52.009,25.6634 C51.727,25.7064 51.301,25.7314 50.764,25.7314 L48.374,25.7314 C48.502,25.4074 48.604,25.2374 48.86,24.9634 C49.073,24.7324 49.499,24.3754 49.875,24.1104" id="Fill-11" fill="#FFBE2E"></path>
            <mask id="mask-6" fill="white">
                <use xlink:href="#path-5"></use>
            </mask>
            <g id="Clip-14"></g>
            <path d="M58.085,24.214 L59.689,24.214 L59.689,22.481 L58.085,22.481 L58.085,24.214 Z M60.628,21.646 C60.406,21.671 60.176,21.679 59.8,21.679 L57.983,21.679 C57.607,21.679 57.368,21.671 57.155,21.646 C57.182,21.867 57.189,22.08 57.189,22.328 L57.189,24.367 C57.189,24.622 57.182,24.818 57.155,25.049 C57.412,25.023 57.557,25.015 57.983,25.015 L59.8,25.015 C60.158,25.015 60.381,25.023 60.628,25.049 C60.603,24.828 60.595,24.64 60.595,24.367 L60.595,22.328 C60.595,22.063 60.603,21.85 60.628,21.646 L60.628,21.646 Z" id="Fill-13" fill="#FFBE2E" mask="url(#mask-6)"></path>
            <path d="M56.243,26.03 L61.557,26.03 L61.557,20.707 L56.243,20.707 L56.243,26.03 Z M55.253,27.345 L56.243,27.345 L56.243,26.875 L61.558,26.875 L61.558,27.345 L62.557,27.345 C62.521,27.131 62.505,26.705 62.505,26.244 L62.505,20.834 C62.505,20.408 62.521,20.126 62.557,19.811 C62.232,19.846 61.967,19.854 61.541,19.854 L56.251,19.854 C55.834,19.854 55.568,19.846 55.253,19.811 C55.288,20.126 55.305,20.434 55.305,20.834 L55.305,26.235 C55.305,26.705 55.288,27.07 55.253,27.345 L55.253,27.345 Z" id="Fill-15" fill="#FFBE2E" mask="url(#mask-6)"></path>
            <path d="M35.9199,35.1533 C35.2429,35.1533 34.7699,35.1273 34.1819,35.0633 L34.1819,37.2123 C34.7569,37.1473 35.2429,37.1223 35.9199,37.1223 L38.9389,37.1223 L38.9389,40.9443 C38.9389,41.6613 38.9129,42.3123 38.8359,43.0163 L41.1249,43.0163 C41.0479,42.3513 41.0219,41.7123 41.0219,40.9443 L41.0219,37.1223 L44.0649,37.1223 C44.7429,37.1223 45.2409,37.1473 45.8689,37.2123 L45.8689,35.0633 C45.2929,35.1273 44.7929,35.1533 44.0649,35.1533 L41.0219,35.1533 L41.0219,32.7753 C41.0219,32.0193 41.0479,31.4703 41.1249,30.9453 L38.8359,30.9453 C38.9129,31.5333 38.9389,32.0193 38.9389,32.7753 L38.9389,35.1533 L35.9199,35.1533 Z" id="Fill-16" fill="#FFBE2E" mask="url(#mask-6)"></path>
            <path d="M53.8994,31.2276 L51.5604,31.2276 C51.6254,31.6106 51.6504,31.9306 51.6504,32.5946 C51.6504,33.0176 51.6504,33.3116 51.6374,33.8226 L48.8874,33.8226 C48.0564,33.8226 47.5714,33.7966 47.0974,33.7476 L47.0974,35.8946 C47.6104,35.8306 47.9424,35.8186 48.9004,35.8186 L51.4714,35.8186 C51.2934,37.0576 50.8564,38.0046 50.0654,38.8736 C49.2084,39.8326 48.2224,40.4726 46.7014,41.0606 C47.2514,41.7246 47.5714,42.2236 47.9424,42.9776 C48.5944,42.6846 48.8874,42.5306 49.2714,42.2996 C50.0504,41.8276 50.7934,41.2016 51.4444,40.4726 C52.0714,39.7686 52.5324,39.0396 52.9024,38.1576 C53.4404,39.3216 54.0414,40.1656 54.9114,41.0086 C55.7414,41.8016 56.5594,42.3766 57.7624,42.9776 C58.1574,42.1096 58.4774,41.6106 59.0404,40.9186 C57.6214,40.3566 56.6114,39.7166 55.7294,38.8356 C54.8724,37.9656 54.2074,36.8916 53.8624,35.8186 L56.7264,35.8186 C57.5044,35.8186 57.9414,35.8306 58.5164,35.8946 L58.5164,33.7476 C58.0044,33.7966 57.5194,33.8226 56.7134,33.8226 L53.7974,33.8226 L53.7974,33.3876 C53.8234,31.7266 53.8234,31.7266 53.8994,31.2276" id="Fill-17" fill="#FFBE2E" mask="url(#mask-6)"></path>
            <path d="M30.2773,59.003 L32.3493,59.003 C32.2853,58.542 32.2723,58.171 32.2723,57.275 L32.2723,52.559 L32.4263,52.559 C32.8853,52.559 33.0783,52.571 33.3593,52.609 L33.3593,50.64 C33.0903,50.691 32.7193,50.717 32.1963,50.717 L29.6643,50.717 L29.6643,49.464 C31.1343,49.246 32.1573,49.028 32.9243,48.773 C33.1683,48.696 33.1683,48.696 33.3963,48.633 L31.9403,46.856 C31.7603,46.982 31.4423,47.136 30.9423,47.29 C29.8553,47.635 28.9483,47.815 27.6823,47.917 C27.7453,48.314 27.7723,48.824 27.7723,49.388 C27.7723,52.968 27.6693,54.796 27.4393,55.666 C27.1963,56.548 26.8773,57.187 26.3013,57.954 C27.0553,58.313 27.3753,58.518 28.1173,59.093 C28.7173,58.146 29.0493,57.34 29.2933,56.215 C29.5233,55.115 29.5993,54.31 29.6513,52.559 L30.3543,52.559 L30.3543,57.275 C30.3543,58.158 30.3413,58.542 30.2773,59.003" id="Fill-18" fill="#FFBE2E" mask="url(#mask-6)"></path>
            <path d="M24.831,50.6787 L24.294,50.6787 C24.204,50.1417 24.166,49.9877 24.025,49.6037 L25.1,49.6037 C25.035,50.0277 24.958,50.3077 24.831,50.6787 M26.366,57.3267 C26.569,56.7397 26.773,56.2787 27.145,55.5887 C26.685,55.2817 26.416,55.0637 26.136,54.7577 C26.711,54.7577 27.03,54.7707 27.4,54.8087 L27.4,52.9547 C27.056,53.0057 26.761,53.0177 26.097,53.0177 L25.533,53.0177 L25.533,52.4567 L26.173,52.4567 C26.773,52.4567 27.081,52.4697 27.477,52.5067 L27.477,50.6157 C27.196,50.6527 27.004,50.6657 26.621,50.6787 C26.685,50.4867 26.851,49.8607 26.915,49.6177 C27.12,49.6297 27.196,49.6297 27.426,49.6557 L27.426,47.7877 C27.068,47.8397 26.8,47.8527 26.123,47.8527 L25.598,47.8527 C25.598,47.3657 25.61,47.2257 25.662,46.9327 L23.515,46.9327 C23.564,47.2647 23.564,47.3787 23.577,47.8527 L22.862,47.8527 C22.21,47.8527 21.902,47.8397 21.545,47.7877 L21.545,49.6557 C21.801,49.6297 21.902,49.6297 22.197,49.6177 C22.324,49.9497 22.414,50.3077 22.478,50.6787 C21.851,50.6787 21.635,50.6657 21.303,50.6157 L21.303,52.5067 C21.672,52.4697 21.992,52.4567 22.58,52.4567 L23.654,52.4567 L23.654,53.0177 L22.619,53.0177 C21.928,53.0177 21.672,53.0057 21.303,52.9547 L21.303,54.8087 C21.672,54.7707 21.979,54.7577 22.58,54.7577 L23.13,54.7577 C22.85,55.1547 22.657,55.3707 22.389,55.6267 C21.851,56.1127 21.456,56.4197 21.084,56.6117 C21.469,57.2897 21.685,57.8137 21.863,58.5417 C22.746,57.9147 23.117,57.5327 23.681,56.6997 C23.668,57.0207 23.654,57.2127 23.654,57.4047 L23.654,58.0437 C23.654,58.4527 23.642,58.7207 23.603,58.9897 L25.598,58.9897 C25.548,58.6967 25.533,58.4277 25.533,57.9537 L25.533,57.2127 C25.533,57.0467 25.52,56.8417 25.509,56.3677 C25.776,56.7777 25.942,56.9567 26.366,57.3267" id="Fill-19" fill="#FFBE2E" mask="url(#mask-6)"></path>
            <path d="M39.6015,57.0723 L39.6015,55.5893 C39.8055,55.4103 39.8055,55.4103 39.9465,55.2813 L40.0625,55.2813 C40.3305,55.8823 40.6235,56.3183 41.1235,56.8423 C40.3175,56.9823 40.3175,56.9823 39.6015,57.0723 L39.6015,57.0723 Z M37.7345,57.2903 C37.0565,57.3663 36.8905,57.3793 36.3665,57.3913 C37.0695,57.0203 37.2105,56.9433 37.7345,56.5863 L37.7345,57.2903 Z M36.9285,49.3103 L35.5475,49.3103 C35.6505,49.1443 35.6885,49.0933 35.7655,48.9393 L36.9285,48.9393 L36.9285,49.3103 Z M43.3985,55.2813 C43.1185,55.5623 42.8875,55.7553 42.6065,55.9463 C42.2875,55.6903 42.1325,55.5243 41.9665,55.2813 L43.3985,55.2813 Z M41.6715,57.3403 C42.6575,58.1583 43.7305,58.6703 45.2905,59.0793 C45.5725,58.3243 45.7895,57.9033 46.2115,57.2633 C45.3415,57.1483 44.8955,57.0473 44.1395,56.7773 C44.4345,56.5863 44.6905,56.4073 44.8055,56.3183 C45.1635,56.0233 45.1635,56.0233 45.2905,55.9213 L43.9735,55.2813 L44.4475,55.2813 C45.2015,55.2813 45.4065,55.2813 45.7265,55.3213 C45.7635,55.3213 45.8025,55.3333 45.8675,55.3333 L45.8675,53.6453 C45.5725,53.6843 45.1635,53.6963 44.3445,53.6963 L41.4165,53.6963 L41.4165,53.4783 C41.4165,53.1723 41.4165,53.0823 41.4555,52.8013 L40.8295,52.8013 C40.8935,52.6483 40.9175,52.4943 40.9175,52.3023 L40.9175,51.4083 L40.9175,50.9343 C40.4325,50.9603 40.3555,50.9603 39.9335,50.9603 L38.6545,50.9603 L38.6545,50.6023 L39.7675,50.6023 C40.3055,50.6023 40.6875,50.6153 41.0595,50.6523 L41.0595,49.2593 C40.7515,49.2983 40.5085,49.3103 39.6655,49.3103 L38.6545,49.3103 L38.6545,48.9393 L39.6655,48.9393 C40.2665,48.9393 40.4715,48.9513 40.9175,48.9783 L40.9175,47.5843 C40.5855,47.6223 40.2905,47.6343 39.6535,47.6343 L38.6545,47.6343 C38.6545,47.3153 38.6685,47.1483 38.7055,46.9203 L36.8775,46.9203 C36.9155,47.2253 36.9285,47.3543 36.9285,47.6343 L36.3925,47.6343 C36.4685,47.4303 36.4945,47.3663 36.5835,47.1353 L34.9345,46.8553 C34.6655,47.6743 34.4485,48.0573 33.9375,48.6583 C34.3595,48.8623 34.7555,49.0803 35.0875,49.3103 C34.5635,49.3103 34.3725,49.2983 34.0905,49.2593 L34.0905,50.6523 C34.4865,50.6153 34.8315,50.6023 35.3695,50.6023 L36.9285,50.6023 L36.9285,50.9603 L35.3045,50.9603 C34.9475,50.9473 34.7045,50.9473 34.5895,50.9343 C34.5895,51.0243 34.5895,51.0243 34.6025,51.2293 C34.6145,51.3043 34.6145,51.5103 34.6145,51.5993 L34.6145,52.5463 C34.6145,52.6483 34.6025,52.9283 34.6025,52.9933 C34.5775,53.1843 34.5775,53.1843 34.5775,53.2873 L36.3155,53.2873 C36.2885,53.1213 36.2885,53.0453 36.2885,52.6483 L36.2885,52.0603 L36.9285,52.0603 L36.9285,52.3663 C36.9285,52.9163 36.9285,52.9683 36.8905,53.4023 L38.6935,53.4023 C38.6685,53.0173 38.6545,52.8273 38.6545,52.3533 L38.6545,52.0603 L39.4105,52.0603 L39.4105,52.3153 C39.4105,52.4423 39.3585,52.4943 39.2295,52.4943 C39.1405,52.4943 39.1025,52.4943 38.8475,52.4573 C38.9495,52.6483 39.0395,52.9933 39.0785,53.2873 L39.5245,53.2873 L39.5245,53.4783 L39.5245,53.6963 L35.6235,53.6963 C34.7435,53.6963 34.4995,53.6843 34.1415,53.6453 L34.1415,55.3333 C34.6915,55.2813 34.6915,55.2813 35.5475,55.2813 L37.0325,55.2813 C36.1995,55.8443 35.1775,56.2413 33.9115,56.5093 C34.2825,57.0083 34.4995,57.4043 34.8055,58.1213 C35.3955,57.8653 35.5745,57.7753 36.0725,57.5333 L36.2885,59.0933 C36.5585,59.0663 36.5965,59.0533 36.8145,59.0283 L38.2075,58.8493 C39.8055,58.6443 40.3175,58.5673 41.6715,58.3123 L41.6715,57.3403 Z" id="Fill-20" fill="#FFBE2E" mask="url(#mask-6)"></path>
            <path d="M43.2461,53.3252 C44.2171,53.3252 44.6651,53.2482 44.9971,53.0322 C45.4061,52.7752 45.5601,52.4052 45.5601,51.6882 L45.5601,48.1842 C45.5601,47.6092 45.5721,47.3422 45.6241,47.0092 L43.6681,47.0092 C43.7061,47.3542 43.7181,47.6482 43.7181,48.0702 L43.7181,51.4452 C43.7181,51.7652 43.6291,51.8172 43.0411,51.8172 C42.7331,51.8172 42.3371,51.7912 41.8011,51.7532 C42.0571,52.2892 42.1971,52.7122 42.2871,53.3002 C42.7851,53.3122 43.0931,53.3252 43.2461,53.3252" id="Fill-21" fill="#FFBE2E" mask="url(#mask-6)"></path>
            <path d="M41.2754,51.4326 L43.1554,51.4326 C43.1184,51.2146 43.1184,51.0636 43.1184,50.5376 L43.1184,48.6196 C43.1184,48.0186 43.1184,47.8776 43.1554,47.6096 L41.2634,47.6096 C41.3024,47.8916 41.3144,48.3006 41.3144,48.6196 L41.3144,50.5636 C41.3144,50.9866 41.3024,51.1646 41.2754,51.4326" id="Fill-22" fill="#FFBE2E" mask="url(#mask-6)"></path>
            <path d="M49.078,56.624 L50.575,56.624 L50.575,54.63 L49.078,54.63 L49.078,56.624 Z M52.492,58.746 C52.467,58.466 52.454,58.158 52.454,57.699 L52.454,53.851 C52.454,53.236 52.454,53.069 52.479,52.827 C52.211,52.852 51.943,52.866 51.597,52.866 L48.427,52.866 C47.877,52.866 47.532,52.852 47.123,52.814 C47.16,53.198 47.173,53.568 47.173,54.003 L47.173,57.481 C47.173,58.185 47.147,58.518 47.096,58.939 L49.092,58.939 L49.092,58.389 L50.575,58.389 L50.575,58.746 L52.492,58.746 Z" id="Fill-23" fill="#FFBE2E" mask="url(#mask-6)"></path>
            <path d="M50.651,50.461 L55.048,50.461 L55.048,49.145 L50.651,49.145 L50.651,50.461 Z M48.67,52.251 C49.015,52.227 49.27,52.214 49.96,52.214 L55.74,52.214 C56.442,52.214 56.686,52.227 57.045,52.251 C57.006,51.919 56.993,51.574 56.993,51.012 L56.993,48.453 C56.993,47.942 57.006,47.597 57.045,47.277 C56.699,47.315 56.276,47.329 55.574,47.329 L50.127,47.329 C49.449,47.329 49.027,47.315 48.67,47.277 C48.708,47.648 48.721,47.981 48.721,48.453 L48.721,51.012 C48.721,51.51 48.695,51.932 48.67,52.251 L48.67,52.251 Z" id="Fill-24" fill="#FFBE2E" mask="url(#mask-6)"></path>
            <path d="M54.96,56.624 L56.584,56.624 L56.584,54.63 L54.96,54.63 L54.96,56.624 Z M58.553,52.814 C58.26,52.852 57.939,52.866 57.364,52.866 L53.963,52.866 C53.605,52.866 53.35,52.852 53.08,52.827 C53.106,53.121 53.106,53.236 53.106,53.824 L53.106,57.891 C53.106,58.337 53.094,58.632 53.067,58.939 L54.96,58.939 L54.96,58.389 L56.571,58.389 L56.571,58.939 L58.579,58.939 C58.515,58.555 58.502,58.197 58.502,57.494 L58.502,54.017 C58.502,53.504 58.515,53.185 58.553,52.814 L58.553,52.814 Z" id="Fill-25" fill="#FFBE2E" mask="url(#mask-6)"></path>
            <path d="M63.6191,48.1084 C63.3241,47.4824 63.2871,47.4054 63.0441,47.0214 L61.1771,47.4434 C61.4201,47.7514 61.4961,47.8524 61.6501,48.1084 L61.1121,48.1084 C60.5891,48.1084 60.3201,48.0954 59.8971,48.0574 C59.9361,48.4924 59.9491,48.7354 59.9491,49.2094 L59.9491,50.0644 C59.9491,50.4614 59.9361,50.6664 59.8851,51.0244 L61.7261,51.0244 L61.7261,49.4894 L69.5781,49.4894 L69.5781,51.0244 L71.4181,51.0244 C71.3681,50.6914 71.3531,50.4734 71.3531,50.0774 L71.3531,49.2334 C71.3531,48.7604 71.3681,48.4664 71.4051,48.0574 C70.9841,48.0954 70.7161,48.1084 70.2171,48.1084 L69.5901,48.1084 C69.7181,47.9044 69.7181,47.9044 69.9991,47.4304 L68.1201,46.9574 C67.9291,47.4434 67.8121,47.6734 67.5451,48.1084 L66.5851,48.1084 L66.5851,47.8524 C66.5851,47.4954 66.5981,47.1874 66.6371,46.9454 L64.5641,46.9454 C64.6031,47.2124 64.6161,47.4824 64.6161,47.8394 L64.6161,48.1084 L63.6191,48.1084 Z" id="Fill-26" fill="#FFBE2E" mask="url(#mask-6)"></path>
            <path d="M62.928,56.075 L68.312,56.075 L68.312,55.755 L62.928,55.755 L62.928,56.075 Z M62.928,54.924 L68.312,54.924 L68.312,54.605 L62.928,54.605 L62.928,54.924 Z M62.928,53.773 L68.312,53.773 L68.312,53.454 L62.928,53.454 L62.928,53.773 Z M68.605,58.746 C69.449,58.964 69.897,59.041 70.92,59.118 C71.138,58.542 71.342,58.133 71.661,57.609 C70.102,57.533 69.219,57.392 68.362,57.085 L69.065,57.085 C69.565,57.085 69.833,57.085 70.242,57.109 C70.217,56.829 70.203,56.573 70.203,55.869 L70.203,53.685 C70.203,53.172 70.217,52.866 70.242,52.457 C69.871,52.481 69.514,52.494 68.849,52.494 L62.392,52.494 C61.625,52.494 61.382,52.481 60.998,52.457 C61.035,52.852 61.048,53.185 61.048,53.685 L61.048,55.869 C61.048,56.395 61.035,56.728 60.998,57.109 C61.496,57.085 61.765,57.085 62.366,57.085 L62.902,57.085 C62.02,57.34 61.074,57.456 59.502,57.506 C59.859,58.031 60.09,58.44 60.333,59.041 C62.263,58.823 63.311,58.567 64.847,57.903 L64.003,57.085 L67.123,57.085 L66.381,57.903 C67.302,58.352 67.748,58.518 68.605,58.746 L68.605,58.746 Z" id="Fill-27" fill="#FFBE2E" mask="url(#mask-6)"></path>
            <path d="M63.914,51.191 L67.366,51.191 L67.366,50.806 L63.914,50.806 L63.914,51.191 Z M62.097,52.227 C62.532,52.2 62.865,52.188 63.351,52.188 L67.966,52.188 C68.529,52.188 68.797,52.2 69.193,52.227 C69.156,51.882 69.156,51.676 69.156,51.318 L69.156,50.666 C69.156,50.32 69.169,50.064 69.193,49.772 C68.747,49.797 68.375,49.809 67.877,49.809 L63.44,49.809 C62.865,49.809 62.519,49.797 62.097,49.772 C62.123,50.027 62.136,50.308 62.136,50.666 L62.136,51.344 C62.136,51.663 62.123,51.919 62.097,52.227 L62.097,52.227 Z" id="Fill-28" fill="#FFBE2E" mask="url(#mask-6)"></path>
            <polygon id="Fill-29" fill="#FFBE2E" mask="url(#mask-6)" points="37.4922 66.6026 36.1682 63.9186 34.8442 66.6026 31.8822 67.0326 34.0252 69.1216 33.5192 72.0706 36.1682 70.6776 38.8162 72.0706 38.3102 69.1216 40.4532 67.0326"></polygon>
            <polygon id="Fill-30" fill="#FFBE2E" mask="url(#mask-6)" points="48.5615 69.1211 50.7055 67.0321 47.7435 66.6021 46.4185 63.9191 45.0945 66.6021 42.1325 67.0321 44.2765 69.1211 43.7705 72.0701 46.4185 70.6781 49.0675 72.0701"></polygon>
            <polygon id="Fill-31" fill="#FFBE2E" mask="url(#mask-6)" points="57.9941 66.6026 56.6701 63.9186 55.3461 66.6026 52.3851 67.0326 54.5271 69.1216 54.0211 72.0706 56.6701 70.6776 59.3181 72.0706 58.8121 69.1216 60.9561 67.0326"></polygon>
            <path d="M42.9287,97.6211 L42.0177,97.6211 L42.0177,96.3391 C42.0177,96.1201 42.0077,95.9291 41.9567,95.3571 C42.4587,96.2791 42.8887,96.8691 43.5797,97.6011 C43.3997,97.6211 43.2597,97.6211 42.9287,97.6211 M40.6847,96.3591 L40.6847,97.6211 L39.8847,97.6211 C39.5437,97.6211 39.3647,97.6211 39.1937,97.6011 C39.9047,96.8301 40.3347,96.1991 40.7447,95.3681 C40.7057,95.7481 40.6847,96.0491 40.6847,96.3591 M42.6087,94.2571 L44.6217,94.2571 C45.1017,94.2571 45.4427,94.2761 45.8727,94.3261 L45.8727,92.9441 C45.5127,92.9941 45.1327,93.0141 44.6217,93.0141 L42.0177,93.0141 L42.0177,92.3531 C42.0177,91.9421 42.0377,91.6821 42.0767,91.4221 L40.6247,91.4221 C40.6647,91.7031 40.6847,91.9421 40.6847,92.3531 L40.6847,93.0141 L38.2017,93.0141 C37.7217,93.0141 37.3697,92.9941 36.9707,92.9441 L36.9707,94.3261 C37.3807,94.2761 37.7417,94.2571 38.2017,94.2571 L40.0437,94.2571 C39.7047,94.9461 39.2327,95.6181 38.6727,96.2501 C38.0517,96.9401 37.4417,97.4501 36.6497,97.9331 C37.0097,98.3821 37.1407,98.6021 37.3807,99.1931 C37.9817,98.7821 38.4017,98.4331 38.9527,97.8611 L38.9527,98.8731 C39.2737,98.8431 39.5537,98.8231 39.9547,98.8231 L40.6847,98.8231 L40.6847,99.4331 C40.6847,99.9251 40.6647,100.3461 40.6157,100.7261 L42.0867,100.7261 C42.0377,100.3651 42.0177,99.9151 42.0177,99.4331 L42.0177,98.8231 L42.8277,98.8231 C43.2297,98.8231 43.5097,98.8431 43.8297,98.8731 L43.8297,97.8511 C44.4317,98.4331 44.8117,98.7431 45.4617,99.1741 C45.7137,98.5731 45.8537,98.3221 46.2137,97.8611 C45.4427,97.4621 44.8417,97.0111 44.1517,96.3391 C43.5297,95.7191 43.0897,95.1281 42.6087,94.2571" id="Fill-32" fill="#FFBE2E" mask="url(#mask-6)"></path>
            <path d="M49.8945,92.3936 C49.6645,91.9726 49.5435,91.7726 49.3325,91.4826 L48.1215,91.8126 C48.3415,92.0626 48.4325,92.1726 48.5725,92.3936 L48.0515,92.3936 C47.6305,92.3936 47.4005,92.3826 47.0695,92.3536 C47.1005,92.6846 47.1105,92.8736 47.1105,93.2346 L47.1105,93.8346 C47.1105,94.1066 47.1005,94.2766 47.0595,94.5466 L48.2915,94.5466 L48.2915,93.3446 L54.6915,93.3446 L54.6915,94.5466 L55.9135,94.5466 C55.8825,94.3056 55.8735,94.1366 55.8735,93.8566 L55.8735,93.2756 C55.8735,92.9036 55.8825,92.6636 55.9135,92.3536 C55.6325,92.3826 55.3515,92.3936 54.9625,92.3936 L54.3705,92.3936 C54.4925,92.2336 54.4925,92.2336 54.7715,91.7916 L53.5605,91.4216 C53.3695,91.8326 53.2485,92.0426 53.0085,92.3936 L52.0965,92.3936 L52.0965,92.1036 C52.0965,91.8326 52.1085,91.5826 52.1375,91.3916 L50.7455,91.3916 C50.7755,91.6126 50.7945,91.8236 50.7945,92.1036 L50.7945,92.3936 L49.8945,92.3936 Z" id="Fill-33" fill="#FFBE2E" mask="url(#mask-6)"></path>
            <path d="M49.894,94.737 L53.078,94.737 L53.078,94.355 L49.894,94.355 L49.894,94.737 Z M54.301,93.595 C53.96,93.616 53.7,93.626 53.299,93.626 L49.693,93.626 C49.254,93.626 49.023,93.616 48.683,93.595 C48.702,93.775 48.712,93.967 48.712,94.257 L48.712,94.838 C48.712,95.098 48.702,95.297 48.683,95.498 C49.014,95.479 49.283,95.468 49.624,95.468 L53.359,95.468 C53.801,95.468 54.01,95.479 54.291,95.498 C54.271,95.218 54.271,95.098 54.271,94.816 L54.271,94.267 C54.271,94.006 54.281,93.806 54.301,93.595 L54.301,93.595 Z" id="Fill-34" fill="#FFBE2E" mask="url(#mask-6)"></path>
            <path d="M49.223,98.584 L53.741,98.584 L53.741,98.272 L49.223,98.272 L49.223,98.584 Z M49.223,97.651 L53.741,97.651 L53.741,97.361 L49.223,97.361 L49.223,97.651 Z M49.223,96.739 L53.741,96.739 L53.741,96.459 L49.223,96.459 L49.223,96.739 Z M54.051,99.314 C54.441,99.314 54.672,99.324 55.012,99.334 C54.982,99.123 54.973,98.902 54.973,98.333 L54.973,96.7 C54.973,96.27 54.982,96.039 55.012,95.719 C54.721,95.738 54.441,95.748 53.899,95.748 L49.053,95.748 C48.442,95.748 48.251,95.738 47.951,95.719 C47.981,96.02 47.991,96.3 47.991,96.7 L47.991,98.333 C47.991,98.763 47.981,99.064 47.951,99.334 C48.352,99.314 48.562,99.314 49.023,99.314 L49.434,99.314 C48.793,99.544 47.941,99.664 46.74,99.714 C47.029,100.096 47.17,100.346 47.36,100.786 C48.843,100.596 49.583,100.396 50.745,99.875 L50.125,99.314 L52.709,99.314 L52.157,99.885 C52.839,100.226 53.169,100.355 53.82,100.547 C54.471,100.727 54.811,100.786 55.603,100.876 C55.753,100.476 55.913,100.175 56.144,99.824 C54.892,99.745 54.221,99.604 53.5,99.314 L54.051,99.314 Z" id="Fill-35" fill="#FFBE2E" mask="url(#mask-6)"></path>
            <polygon id="Fill-36" fill="#FFBE2E" mask="url(#mask-6)" points="50.7959 7.128 52.5479 1 48.8699 4.677 46.4189 1 43.9679 4.677 40.2899 1 42.0419 7.128"></polygon>
            <polygon id="Fill-37" fill="#FFBE2E" mask="url(#mask-6)" points="50.4463 8.3545 42.3913 8.3545 42.7423 9.5805 50.0953 9.5805"></polygon>
        </g>
    </g>
</svg>